<svg xmlns="http://www.w3.org/2000/svg" viewBox="0 0 640 640"><defs></defs><g transform="translate(157.1,64.0) scale(11.636)" fill="none" stroke="#AEC3D6" stroke-width="0.3" stroke-linejoin="round" stroke-linecap="round"><path d="M27.00 15.87 L27.65 15.46 L27.58 15.87 L27.00 15.87 Z"/><path d="M26.67 18.80 L25.14 19.60 L26.60 16.24 L27.37 17.36 L26.81 18.59 L26.67 18.80 Z"/><path d="M18.82 21.40 L23.23 20.17 L21.15 22.08 L18.82 21.40 Z"/><path d="M18.45 21.25 L17.76 19.54 L23.01 19.98 L18.45 21.25 Z"/><path d="M11.14 22.89 L10.84 22.62 L11.15 22.46 L12.82 23.25 L11.92 23.70 L11.14 22.89 L11.14 22.89 Z"/><path d="M6.87 19.33 L9.82 22.01 L8.29 21.78 L6.87 19.33 Z"/><path d="M16.62 0.69 L17.02 0.62 L16.47 0.93 L16.62 0.69 Z"/><path d="M25.40 9.10 L26.87 12.60 L21.19 8.99 L23.55 7.16 L23.55 7.27 L23.68 7.10 L25.37 9.06 L25.37 9.06 L25.40 9.10 Z"/><path d="M15.09 23.55 L15.11 23.58 L14.48 23.82 L14.63 22.76 L14.65 22.58 L15.92 21.94 L16.22 22.41 L15.23 23.53 L15.09 23.55 Z"/><path d="M10.24 22.07 L7.14 19.25 L11.98 21.78 L11.13 22.21 L10.24 22.07 Z"/><path d="M10.76 22.39 L10.65 22.44 L10.56 22.36 L10.76 22.39 Z"/><path d="M10.42 22.56 L9.42 23.05 L8.34 22.72 L8.34 22.02 L10.13 22.30 L10.42 22.56 Z"/><path d="M2.44 16.12 L2.73 14.08 L2.84 13.89 L5.99 18.37 L4.05 17.30 L2.44 16.12 Z"/><path d="M14.24 23.79 L13.59 23.36 L13.56 23.13 L14.39 22.71 L14.39 22.73 L14.24 23.79 Z"/><path d="M13.53 22.89 L13.41 22.01 L14.47 22.08 L14.43 22.43 L13.53 22.89 Z"/><path d="M2.96 8.78 L6.10 8.18 L2.91 13.33 L2.96 8.78 Z"/><path d="M8.73 3.27 L8.61 4.04 L6.60 4.47 L8.52 2.65 L8.73 3.27 Z"/><path d="M8.85 4.21 L12.34 2.02 L14.17 12.56 L6.52 7.96 L8.84 4.23 L8.85 4.23 L8.85 4.21 Z"/><path d="M14.21 13.04 L14.04 19.78 L6.68 18.65 L14.21 13.04 Z"/><path d="M6.50 18.49 L6.50 8.22 L14.12 12.81 L6.50 18.49 Z"/><path d="M14.28 19.78 L14.44 13.28 L17.39 19.31 L14.28 19.78 Z"/><path d="M6.26 8.38 L6.26 18.35 L2.98 13.68 L6.26 8.38 Z"/><path d="M13.90 20.00 L12.22 21.64 L7.07 18.95 L13.90 20.00 Z"/><path d="M13.79 20.44 L13.20 21.75 L12.50 21.69 L13.79 20.44 Z"/><path d="M14.71 22.08 L15.27 22.00 L14.68 22.30 L14.71 22.08 Z"/><path d="M15.89 21.67 L14.60 21.85 L13.45 21.77 L14.23 20.03 L17.32 19.56 L15.89 21.67 Z"/><path d="M14.49 12.84 L20.80 9.23 L17.55 19.09 L14.49 12.84 Z"/><path d="M18.24 4.09 L20.99 3.94 L20.90 8.56 L18.24 4.09 Z"/><path d="M21.15 8.10 L21.23 3.99 L22.52 4.54 L21.15 8.10 Z"/><path d="M22.67 4.80 L23.53 6.88 L21.18 8.69 L22.67 4.80 Z"/><path d="M18.34 3.85 L20.07 2.13 L20.92 3.71 L18.34 3.85 Z"/><path d="M16.32 1.37 L18.57 1.18 L17.98 3.70 L16.32 1.37 Z"/><path d="M17.72 3.73 L12.89 1.88 L16.05 1.40 L17.72 3.73 Z"/><path d="M17.96 4.08 L20.79 8.83 L20.82 8.95 L14.43 12.61 L12.58 2.02 L17.96 4.08 Z"/><path d="M12.15 1.86 L8.87 3.92 L8.96 3.31 L10.69 1.40 L12.15 1.86 Z"/><path d="M8.72 2.48 L9.16 2.11 L8.86 2.90 L8.72 2.48 Z"/><path d="M6.27 4.46 L5.71 2.86 L6.72 2.32 L8.31 2.52 L6.27 4.46 Z"/><path d="M6.37 4.76 L8.51 4.30 L6.34 7.81 L4.65 6.32 L6.23 4.82 L6.44 4.94 L6.37 4.76 Z"/><path d="M6.12 7.94 L3.04 8.52 L4.49 6.50 L6.12 7.94 Z"/><path d="M2.67 13.26 L2.29 12.39 L2.71 9.80 L2.67 13.26 Z"/><path d="M2.56 13.57 L2.50 14.00 L1.85 15.04 L2.22 12.81 L2.56 13.57 Z"/><path d="M12.28 21.90 L13.17 21.99 L13.30 23.00 L13.09 23.11 L11.42 22.33 L12.28 21.90 Z"/><path d="M13.35 23.49 L13.28 23.80 L12.37 23.74 L13.09 23.37 L13.35 23.49 Z"/><path d="M13.56 23.62 L13.90 23.85 L13.52 23.82 L13.56 23.62 Z"/><path d="M14.06 24.10 L13.29 24.83 L13.47 24.06 L14.06 24.10 Z"/><path d="M14.22 24.28 L14.22 25.38 L13.33 25.13 L14.22 24.28 Z"/><path d="M16.33 22.63 L16.65 23.34 L15.59 23.48 L16.33 22.63 Z"/><path d="M16.40 22.26 L16.16 21.87 L17.65 21.63 L16.40 22.26 Z"/><path d="M16.21 21.62 L17.55 19.65 L18.22 21.30 L16.21 21.62 Z"/><path d="M20.96 9.52 L23.52 19.79 L17.73 19.30 L20.96 9.52 Z"/><path d="M21.16 9.36 L26.43 15.99 L23.73 19.65 L21.16 9.36 Z"/><path d="M26.51 15.70 L21.61 9.53 L27.00 12.97 L26.51 15.70 Z"/><path d="M23.55 6.32 L22.89 4.70 L23.55 4.98 L23.55 6.32 Z"/><path d="M21.41 3.81 L22.92 3.14 L22.59 4.32 L21.41 3.81 Z"/><path d="M21.04 3.44 L20.42 2.28 L21.14 2.74 L21.04 3.44 Z"/><path d="M18.25 3.60 L18.81 1.24 L19.91 1.95 L18.25 3.60 Z"/><path d="M16.64 1.10 L17.69 0.52 L18.37 0.96 L16.64 1.10 Z"/><path d="M12.82 1.65 L14.24 0.43 L15.73 1.20 L12.82 1.65 Z"/><path d="M12.50 1.61 L12.13 0.00 L14.13 0.22 L12.50 1.61 Z"/><path d="M12.26 1.65 L10.87 1.21 L11.91 0.11 L12.26 1.65 Z"/><path d="M9.19 2.71 L9.52 1.82 L10.23 1.55 L9.19 2.71 Z"/><path d="M9.32 1.67 L8.54 2.32 L6.94 2.11 L9.64 0.47 L9.32 1.67 Z"/><path d="M5.99 4.40 L5.34 4.00 L5.58 3.19 L5.99 4.40 Z"/><path d="M4.55 6.08 L4.36 4.79 L5.92 4.79 L4.55 6.08 Z"/><path d="M2.81 8.43 L2.06 6.09 L4.26 6.41 L2.81 8.43 Z"/><path d="M2.11 11.99 L1.51 10.66 L2.57 9.18 L2.11 11.99 Z"/><path d="M2.04 12.42 L1.69 14.54 L1.53 11.27 L2.04 12.42 Z"/><path d="M1.78 15.61 L2.41 14.58 L2.22 15.96 L1.81 15.66 L1.78 15.61 Z"/><path d="M2.40 16.38 L3.69 17.33 L3.09 17.44 L2.39 16.46 L2.40 16.38 Z"/><path d="M3.14 17.67 L3.96 17.52 L5.92 18.60 L2.99 18.60 L3.14 17.67 Z"/><path d="M3.13 18.84 L6.31 18.84 L8.02 21.79 L6.17 22.07 L3.13 18.84 Z"/><path d="M8.26 22.94 L9.23 23.24 L7.82 23.50 L8.26 22.94 Z"/><path d="M10.61 22.73 L10.84 22.94 L9.78 23.14 L10.61 22.73 Z"/><path d="M13.23 24.04 L13.04 24.89 L12.16 23.96 L13.23 24.04 Z"/><path d="M13.64 30.60 L13.46 31.20 L13.14 30.79 L13.64 30.60 Z"/><path d="M13.71 30.32 L13.09 30.55 L13.93 27.86 L13.71 30.32 Z"/><path d="M13.09 29.76 L13.20 25.52 L14.01 26.83 L13.09 29.76 Z"/><path d="M13.05 31.07 L13.35 31.46 L13.03 31.92 L13.05 31.07 Z"/><path d="M13.51 31.66 L13.92 32.21 L13.09 32.26 L13.51 31.66 Z"/><path d="M15.65 32.38 L14.43 32.23 L15.78 31.02 L15.65 32.38 Z"/><path d="M16.00 31.21 L16.41 32.16 L15.90 32.34 L16.00 31.21 Z"/><path d="M14.17 32.14 L13.63 31.44 L13.91 30.53 L15.66 30.81 L14.17 32.14 Z"/><path d="M14.01 29.67 L14.24 27.09 L14.87 27.70 L14.01 29.67 Z"/><path d="M15.05 27.87 L15.68 28.48 L14.17 29.92 L15.05 27.87 Z"/><path d="M14.35 26.86 L15.49 26.25 L14.97 27.46 L14.35 26.86 Z"/><path d="M14.29 26.62 L14.44 25.77 L14.55 25.71 L15.50 25.97 L14.29 26.62 Z"/><path d="M14.22 25.68 L14.07 26.49 L13.41 25.40 L14.22 25.62 L14.22 25.68 Z"/><path d="M14.46 25.44 L14.46 24.18 L15.74 24.76 L14.52 25.46 L14.46 25.44 Z"/><path d="M14.65 24.01 L15.24 23.79 L15.69 24.48 L14.65 24.01 Z"/><path d="M15.49 23.73 L16.70 23.57 L16.01 24.54 L15.49 23.73 Z"/><path d="M16.89 23.30 L16.51 22.47 L18.01 21.72 L16.89 23.30 Z"/><path d="M23.97 19.71 L26.06 16.90 L24.82 19.74 L24.80 19.74 L24.80 19.75 L23.99 19.79 L24.12 19.67 L23.97 19.71 Z"/><path d="M26.75 15.74 L27.16 13.42 L27.68 15.16 L26.75 15.74 Z"/><path d="M27.13 12.61 L25.85 9.55 L27.68 11.40 L27.13 12.61 Z"/><path d="M27.54 10.92 L25.64 8.99 L26.20 7.04 L27.54 10.92 Z"/><path d="M25.45 8.79 L23.86 6.95 L25.35 6.09 L26.06 6.68 L25.45 8.79 Z"/><path d="M25.16 5.92 L23.79 6.68 L23.79 5.10 L25.16 5.92 Z"/><path d="M22.90 4.45 L23.55 3.94 L23.55 4.73 L22.90 4.45 Z"/><path d="M23.51 3.67 L22.88 4.16 L23.15 3.19 L23.51 3.67 Z"/><path d="M21.26 3.62 L21.38 2.80 L22.68 2.99 L21.26 3.62 Z"/><path d="M16.09 1.07 L15.50 0.38 L16.37 0.65 L16.09 1.07 Z"/><path d="M15.62 0.88 L14.40 0.25 L15.15 0.33 L15.62 0.88 Z"/><path d="M10.62 1.13 L10.62 1.13 L10.58 1.17 L9.61 1.54 L9.92 0.32 L11.65 0.04 L10.62 1.13 Z"/><path d="M5.20 4.20 L5.79 4.55 L4.63 4.55 L5.20 4.20 Z"/><path d="M4.13 4.86 L4.33 6.18 L2.26 5.88 L4.13 4.86 Z"/><path d="M1.94 6.51 L2.64 8.68 L1.54 10.21 L1.94 6.51 Z"/><path d="M1.30 11.45 L1.49 15.35 L0.51 14.58 L1.30 11.45 Z"/><path d="M2.34 16.81 L2.91 17.60 L2.77 18.46 L2.20 17.85 L2.34 16.81 Z"/><path d="M8.10 22.02 L8.10 22.77 L7.52 23.49 L6.37 22.28 L8.10 22.02 Z"/><path d="M11.19 32.37 L12.82 30.99 L12.78 32.28 L11.19 32.37 Z"/><path d="M16.66 32.13 L16.01 30.83 L18.01 32.38 L16.66 32.13 Z"/><path d="M15.80 30.60 L14.08 30.32 L15.74 28.75 L15.80 30.60 Z"/><path d="M15.72 28.19 L15.15 27.64 L15.66 26.46 L15.72 28.19 Z"/><path d="M15.67 25.78 L14.84 25.55 L15.84 24.98 L15.67 25.78 Z"/><path d="M19.75 22.86 L18.72 21.62 L20.85 22.24 L19.75 22.86 Z"/><path d="M22.71 21.93 L21.53 22.06 L23.40 20.34 L22.84 21.88 L22.71 21.93 Z"/><path d="M24.46 21.31 L23.13 21.78 L23.76 20.04 L24.74 19.99 L24.46 21.31 Z"/><path d="M26.05 19.74 L25.36 19.74 L26.40 19.21 L26.05 19.74 Z"/><path d="M27.07 16.45 L26.82 16.10 L27.44 16.10 L27.07 16.45 Z"/><path d="M20.08 23.30 L19.91 23.08 L21.18 22.36 L22.73 22.15 L22.54 22.71 L20.08 23.30 Z"/></g></svg>