<svg version="1.1" id="Layer_1" xmlns="http://www.w3.org/2000/svg" xmlns:xlink="http://www.w3.org/1999/xlink" x="0px" y="0px"
	 width="100%" viewBox="0 0 805 761" enable-background="new 0 0 805 761" xml:space="preserve">
<path fill="#FEFFFF" opacity="1.000000" stroke="none" 
	d="
M1.000000,288.000000 
	C1.000000,192.000000 1.000000,96.500000 1.000000,1.000000 
	C269.333344,1.000000 537.666687,1.000000 806.000000,1.000000 
	C806.000000,254.666672 806.000000,508.333344 806.000000,762.000000 
	C537.666687,762.000000 269.333344,762.000000 1.000000,762.000000 
	C1.000000,604.166687 1.000000,446.333344 1.000000,288.000000 
M425.780731,93.479828 
	C426.013306,93.546371 426.245911,93.612915 426.478485,93.679466 
	C426.319153,93.452797 426.159821,93.226128 425.858154,92.332672 
	C421.663513,84.875427 415.173737,82.277145 406.547363,84.188980 
	C413.030029,87.127144 419.512695,90.065315 425.780731,93.479828 
M632.381226,447.918091 
	C626.766479,450.724762 621.151794,453.531433 614.870972,456.671082 
	C623.301208,458.670898 629.406494,457.453735 632.426575,449.406708 
	C632.597961,448.949982 632.844727,448.521515 633.065613,447.900726 
	C633.065613,447.900726 633.098389,447.847015 633.098389,447.847015 
	C633.098389,447.847015 633.105713,448.147308 632.381226,447.918091 
M470.807098,496.616211 
	C462.271729,500.894989 453.736328,505.173767 445.013000,509.546753 
	C447.525238,515.046326 449.801666,520.029724 452.421387,525.764648 
	C459.346344,515.632507 465.698578,506.338440 472.510773,496.869171 
	C472.167938,496.712006 471.825134,496.554840 470.807098,496.616211 
M376.842896,109.128159 
	C394.115875,106.606522 411.388855,104.084885 428.661835,101.563248 
	C420.436493,96.027756 412.130035,91.611832 403.729401,87.382935 
	C402.787750,86.908882 400.897278,87.014503 400.148743,87.662338 
	C392.031189,94.688026 384.054047,101.875931 375.793060,109.120773 
	C375.852020,109.065369 375.910980,109.009956 376.842896,109.128159 
M257.788788,163.115112 
	C269.312469,160.734055 280.844299,158.390686 292.343719,155.897690 
	C293.227356,155.706116 294.398956,154.557251 294.563171,153.688278 
	C296.097839,145.566696 297.442780,137.408859 291.825134,129.344711 
	C280.102173,140.665741 268.550629,151.821243 256.873810,163.144775 
	C256.873810,163.144775 256.870026,163.315872 256.870026,163.315872 
	C256.870026,163.315872 256.942291,162.923279 257.788788,163.115112 
M625.018188,263.532379 
	C624.889038,263.266388 624.759827,263.000427 624.630615,262.734467 
	C624.511780,262.823608 624.284424,262.983612 624.289673,262.991730 
	C624.514282,263.335754 624.759705,263.666199 624.979126,264.756989 
	C632.421509,282.851440 639.863831,300.945892 647.306152,319.040344 
	C651.058289,313.316406 653.075134,307.654816 655.998596,302.508240 
	C658.482117,298.136322 657.386841,295.542755 654.042236,292.359863 
	C645.981812,284.689178 638.305176,276.616272 630.423096,268.756287 
	C628.723999,267.061951 626.811646,265.581451 625.018188,263.532379 
M536.821838,242.083542 
	C540.182617,239.745911 543.636597,237.530380 546.887024,235.048264 
	C557.638916,226.838089 568.317322,218.531677 579.119324,210.188538 
	C573.664795,196.938110 568.423462,184.205444 562.721375,170.353531 
	C557.130615,184.995148 551.988525,198.283371 546.985046,211.623596 
	C543.207153,221.696167 539.606445,231.835190 535.520691,242.224167 
	C535.548340,242.608185 535.575989,242.992188 535.603638,243.376205 
	C535.767944,242.947678 535.932251,242.519165 536.821838,242.083542 
M545.887085,263.557251 
	C545.679382,263.591217 545.471680,263.625183 545.263977,263.659119 
	C545.437134,263.841583 545.610352,264.024048 545.865601,264.901245 
	C546.555237,266.034027 547.135193,267.253296 547.950500,268.286987 
	C572.964233,300.001068 597.992126,331.703918 623.043274,363.388489 
	C627.091919,368.509216 631.259583,373.535767 635.560364,378.837769 
	C636.081238,377.827789 636.432312,377.411163 636.516235,376.946350 
	C639.342896,361.285156 642.243347,345.635468 644.786682,329.927979 
	C645.025452,328.453339 643.398682,325.981079 641.945801,325.033539 
	C623.279602,312.860260 604.512634,300.840607 585.718445,288.864868 
	C572.551880,280.475037 559.304504,272.211945 545.887085,263.557251 
M525.183960,256.863281 
	C524.699951,256.982361 524.155762,256.996674 523.740601,257.235474 
	C487.963196,277.814758 452.194122,298.408447 416.430664,319.011963 
	C413.180878,320.884186 409.972076,322.827606 406.547089,324.854645 
	C426.013947,364.813477 445.183777,404.162628 464.859833,444.550903 
	C465.884796,441.607788 466.502075,439.919495 467.062897,438.212646 
	C482.065002,392.553162 497.098022,346.903809 512.037415,301.223785 
	C516.839417,286.540680 521.391663,271.775909 526.368042,256.902710 
	C526.218689,256.905518 526.069397,256.908356 525.183960,256.863281 
M507.031372,261.524200 
	C512.678162,258.344971 518.312622,255.143494 523.976990,251.995834 
	C526.830750,250.410034 527.434204,248.836319 525.536377,245.650970 
	C509.383850,218.539658 493.427277,191.311386 477.463745,164.087784 
	C474.749359,159.458801 471.813324,155.792282 466.221436,153.726227 
	C441.618805,144.636246 417.252930,134.906036 392.787567,125.443398 
	C385.447540,122.604454 378.063019,119.880630 369.997162,116.839500 
	C381.805176,184.953613 393.454987,252.155151 405.259033,320.246429 
	C439.409454,300.531891 472.896149,281.200470 507.031372,261.524200 
M368.992310,137.559830 
	C367.823364,131.087372 366.654419,124.614906 365.345367,117.366745 
	C363.240997,118.510788 361.659393,119.259895 360.189667,120.186432 
	C341.045959,132.254898 321.873016,144.278458 302.837677,156.515839 
	C300.167114,158.232666 297.660675,160.695526 295.976471,163.377167 
	C283.852570,182.681229 271.953705,202.126694 260.001770,221.538589 
	C258.131592,224.576035 256.354279,227.670670 254.431198,230.912155 
	C303.191772,260.427948 351.256470,289.522461 400.458679,319.305573 
	C389.849335,258.222595 379.445953,198.325577 368.992310,137.559830 
M293.631195,259.851044 
	C280.613708,252.040817 267.596252,244.230591 254.381409,236.301941 
	C254.381409,301.825592 254.381409,366.669647 254.381409,432.713165 
	C303.123474,396.162170 351.039185,360.230835 399.340759,324.010132 
	C387.106842,316.560883 375.634308,309.562073 364.148804,302.584534 
	C340.864838,288.439362 317.573914,274.305756 293.631195,259.851044 
M524.120544,278.683258 
	C505.563354,335.148499 487.006165,391.613708 468.257324,448.662079 
	C505.447144,451.850952 541.752380,454.963989 578.893738,458.148712 
	C562.622620,392.441406 546.599915,327.737427 530.577271,263.033417 
	C530.168091,263.031281 529.758972,263.029144 529.349792,263.027008 
	C527.693787,267.994293 526.037781,272.961548 524.120544,278.683258 
M346.108765,369.594757 
	C316.814392,391.550537 287.520020,413.506348 257.204010,436.227875 
	C304.731293,443.605255 351.093903,450.801849 397.806396,458.052765 
	C398.930725,414.733368 400.037781,372.079681 401.172455,328.362610 
	C382.340881,342.458313 364.508301,355.806274 346.108765,369.594757 
M559.910339,362.602966 
	C567.433350,393.099365 574.956421,423.595795 582.698547,454.980591 
	C584.337280,453.170532 585.186646,452.381927 585.861633,451.464935 
	C601.451477,430.284241 616.962830,409.045288 632.667053,387.949860 
	C634.795410,385.090820 633.422729,383.494720 631.838745,381.489990 
	C601.912292,343.614197 571.999756,305.727325 542.066528,267.856873 
	C540.004517,265.248138 537.802246,262.750244 535.665161,260.200806 
	C535.313232,260.401154 534.961243,260.601471 534.609253,260.801819 
	C542.983337,294.466766 551.357422,328.131744 559.910339,362.602966 
M205.857010,309.339630 
	C200.084671,318.680450 194.407120,328.082062 188.477554,337.321991 
	C186.868820,339.828857 186.982986,341.525757 188.683319,343.938690 
	C207.951859,371.282898 227.096634,398.714264 246.295319,426.107788 
	C246.969254,427.069397 247.858871,427.879852 249.003143,429.157318 
	C249.003143,365.887207 249.003143,303.372711 249.003143,239.416397 
	C234.255783,263.283386 220.225189,285.990356 205.857010,309.339630 
M610.575745,247.911850 
	C609.433289,246.490967 608.333435,245.033264 607.141541,243.655197 
	C599.864868,235.242157 592.275696,227.076248 585.413940,218.338501 
	C582.484924,214.608643 580.224915,215.028732 577.248413,217.309662 
	C567.107300,225.080872 556.991699,232.885742 546.910767,240.734879 
	C542.928711,243.835358 539.063538,247.085953 534.593628,250.716141 
	C570.586609,273.764832 605.847412,296.344635 642.065247,319.537323 
	C641.450317,317.204041 641.288452,316.078949 640.865906,315.062225 
	C633.086975,296.345795 625.370911,277.602051 617.394043,258.970001 
	C615.798401,255.242844 613.183594,251.951996 610.575745,247.911850 
M426.813629,454.225494 
	C438.369843,452.473602 449.926056,450.721680 461.982208,448.894012 
	C443.197968,410.345337 424.773865,372.535645 406.349731,334.725952 
	C406.041290,334.853149 405.732880,334.980377 405.424469,335.107574 
	C404.393677,375.938751 403.362885,416.769928 402.321198,458.031738 
	C410.566162,456.773102 418.262299,455.598267 426.813629,454.225494 
M232.539795,485.959473 
	C236.867264,490.576660 241.138168,495.249329 245.567978,499.766144 
	C246.497971,500.714386 248.105118,501.776001 249.242950,501.622162 
	C260.231018,500.136475 271.185425,498.402100 282.379425,496.703888 
	C282.121277,495.742981 282.079163,495.052826 281.770782,494.515503 
	C271.754303,477.062592 261.769104,459.590851 251.557175,442.252716 
	C250.805542,440.976532 248.402649,440.060028 246.747498,440.028625 
	C236.258896,439.829895 225.764648,439.927612 215.272278,439.927582 
	C207.027740,439.927551 198.783203,439.927612 189.425690,439.927612 
	C204.153366,455.655731 218.102173,470.552094 232.539795,485.959473 
M233.100647,256.633423 
	C237.363937,249.720825 241.627228,242.808228 246.383759,235.095886 
	C227.043915,238.818283 208.657455,242.485825 190.206696,245.794907 
	C186.709869,246.422043 186.008011,247.846237 186.008911,250.997177 
	C186.013748,267.983185 185.815506,284.969147 185.734558,301.955353 
	C185.686569,312.027740 185.725769,322.100525 185.725769,333.386353 
	C201.748444,307.455170 217.252335,282.363556 233.100647,256.633423 
M366.081604,490.752716 
	C375.253998,481.025940 384.426392,471.299194 393.319366,461.868683 
	C351.777100,455.420685 309.298523,448.827362 266.576141,442.196167 
	C266.965424,442.728027 267.098846,443.099640 267.356598,443.235565 
	C298.525635,459.670471 329.689148,476.116272 360.945221,492.384186 
	C361.998169,492.932190 363.989410,491.677460 366.081604,490.752716 
M496.612518,187.884888 
	C507.143799,205.660309 517.675110,223.435730 528.948608,242.463913 
	C529.518921,212.033356 530.059509,183.187973 530.611877,153.712540 
	C513.081848,154.636337 496.107910,155.530823 478.087067,156.480469 
	C484.477203,167.337219 490.343781,177.304474 496.612518,187.884888 
M288.431671,166.965973 
	C289.533569,165.135864 290.635498,163.305771 292.289246,160.559113 
	C281.984955,162.793213 272.590851,164.661835 263.288910,166.911530 
	C257.938110,168.205627 251.650696,168.781433 247.679626,172.010605 
	C237.426834,180.347870 228.227005,189.979980 218.354752,199.333572 
	C229.335678,209.083633 239.873383,218.440155 250.719894,228.070862 
	C263.292786,207.704819 275.676270,187.645584 288.431671,166.965973 
M418.947998,496.316040 
	C421.583282,495.932037 424.239014,495.126953 426.849487,495.253754 
	C431.930237,495.500519 434.600616,492.797333 437.063843,488.828186 
	C441.363251,481.900360 446.121185,475.257690 450.665558,468.481201 
	C453.784363,463.830536 456.867157,459.155701 460.079071,454.321564 
	C459.224396,454.146393 458.897003,453.987244 458.600006,454.031586 
	C440.333282,456.760437 422.065948,459.485626 403.813080,462.304688 
	C402.806702,462.460083 401.438568,463.186005 401.055237,464.021118 
	C396.237366,474.517517 391.570038,485.082977 386.470612,496.512909 
	C397.625763,496.512909 407.854462,496.512909 418.947998,496.316040 
M231.586533,412.886871 
	C215.809372,390.347015 200.032227,367.807190 183.558456,344.272125 
	C182.497223,347.521515 181.542023,349.470795 181.246078,351.515503 
	C179.674210,362.375092 178.152359,373.245605 176.924820,384.147461 
	C176.734436,385.838318 177.624893,388.390076 178.911819,389.389221 
	C187.846207,396.325775 196.661453,403.521484 206.203720,409.542358 
	C217.909317,416.928192 230.286301,423.249969 242.373047,430.031769 
	C242.588654,429.774048 242.804260,429.516327 243.019882,429.258606 
	C239.347305,423.996521 235.674744,418.734436 231.586533,412.886871 
M514.767639,477.136688 
	C531.999512,472.313171 549.231445,467.489624 566.463318,462.666077 
	C566.399841,462.291901 566.336365,461.917725 566.272827,461.543549 
	C533.994202,458.779846 501.715607,456.016113 468.745728,453.193237 
	C473.341827,464.559998 477.722839,475.394745 482.159180,486.366394 
	C493.215210,483.241302 503.602234,480.305328 514.767639,477.136688 
M428.834290,134.668900 
	C441.383698,139.449341 453.933075,144.229797 466.482483,149.010239 
	C457.588654,134.792831 448.078156,121.581741 438.833435,108.187218 
	C436.899231,105.384781 434.939972,104.760002 431.784729,105.292030 
	C421.473236,107.030708 411.116882,108.501694 400.784515,110.118881 
	C393.031158,111.332428 385.288177,112.612595 377.540588,113.863091 
	C377.537659,114.178413 377.534698,114.493729 377.531769,114.809052 
	C394.400238,121.317223 411.268738,127.825394 428.834290,134.668900 
M345.277893,489.265350 
	C320.787415,476.735168 296.732758,463.331818 271.653687,451.898285 
	C288.796814,468.658905 306.330566,484.716583 323.896454,500.739014 
	C324.593353,501.374634 325.548645,501.830322 326.463013,502.108521 
	C338.456238,505.757111 347.867096,503.943939 357.893616,495.962311 
	C353.823303,493.826111 349.863251,491.747772 345.277893,489.265350 
M553.353210,470.965607 
	C532.397095,476.855133 511.440948,482.744659 490.484802,488.634216 
	C504.082031,493.547028 517.450073,497.557922 530.911255,501.227356 
	C532.501648,501.660858 535.080750,500.751984 536.391479,499.568237 
	C547.642517,489.407410 558.711975,479.045319 569.815552,468.721741 
	C570.543030,468.045380 571.105042,467.191010 572.423584,465.598816 
	C565.619385,467.529846 559.882568,469.157959 553.353210,470.965607 
M630.343567,443.834167 
	C637.784729,441.222961 642.234924,435.927155 644.816711,428.566132 
	C646.515320,423.723114 649.039490,419.174713 651.023865,414.423370 
	C651.551453,413.160095 652.115234,411.213989 651.533875,410.297119 
	C647.298462,403.618011 642.774780,397.121735 637.797729,389.762573 
	C628.316650,411.633270 619.260620,432.523254 609.681091,454.620911 
	C617.124084,450.711243 623.392578,447.418518 630.343567,443.834167 
M611.984863,242.468903 
	C612.749451,243.925339 613.514038,245.381790 614.278625,246.838226 
	C614.883667,246.396805 615.488770,245.955399 616.093872,245.513992 
	C619.379761,234.236771 622.506287,222.909225 626.041992,211.710892 
	C627.208679,208.015793 626.668823,205.700241 623.732788,203.076584 
	C614.402344,194.738770 614.489319,194.566772 603.579712,200.809006 
	C597.607788,204.226059 591.741211,207.827469 585.403015,211.598053 
	C594.452087,222.123367 602.977478,232.039520 611.984863,242.468903 
M478.332306,126.958282 
	C480.321655,118.441803 482.311005,109.925331 484.493439,100.582336 
	C469.901672,101.815102 456.102142,102.980927 441.361877,104.226242 
	C452.057678,119.321648 462.259918,133.720505 473.191284,149.148361 
	C475.024536,141.213089 476.577393,134.491562 478.332306,126.958282 
M215.141815,236.602417 
	C225.319397,234.623871 235.496964,232.645340 246.693344,230.468735 
	C235.843826,220.843201 225.744934,211.883606 215.384338,202.691849 
	C206.126617,215.742676 197.187363,228.344559 187.676254,241.752579 
	C197.360977,239.948624 205.835876,238.370010 215.141815,236.602417 
M310.416046,130.900940 
	C304.691437,137.047363 297.774231,142.598251 299.941437,152.852661 
	C320.179962,140.079239 340.500763,127.253868 361.780426,113.823326 
	C352.340057,110.797287 344.046356,108.046822 335.671021,105.572968 
	C334.647217,105.270576 332.809448,106.105705 331.985229,107.000084 
	C324.872803,114.717827 317.906433,122.570190 310.416046,130.900940 
M252.855804,125.192665 
	C248.241623,127.744484 243.627457,130.296310 238.767685,132.983932 
	C242.326157,143.232544 245.764832,153.136124 249.444977,163.735123 
	C262.721100,151.068481 275.315033,139.052719 288.478241,126.493820 
	C282.142670,125.603310 277.067505,124.541374 271.949432,124.260612 
	C265.833313,123.925095 259.543335,120.610558 252.855804,125.192665 
M546.774475,159.768585 
	C543.051636,158.185349 539.328796,156.602112 534.627136,154.602631 
	C534.627136,180.483521 534.627136,205.271286 534.627136,230.518433 
	C535.168945,229.381973 535.627380,228.567520 535.958496,227.704208 
	C542.319336,211.120453 548.573975,194.495209 555.043762,177.954132 
	C560.007385,165.264038 560.126343,165.310562 546.774475,159.768585 
M176.105911,217.455215 
	C178.472275,224.750137 180.838623,232.045059 183.438568,240.060089 
	C192.881943,226.758118 201.824631,214.161423 211.117172,201.071899 
	C196.675980,198.939285 183.101929,196.934738 168.969391,194.847702 
	C171.425720,202.549805 173.679031,209.615265 176.105911,217.455215 
M654.387268,285.681580 
	C654.284241,284.747528 654.347839,283.757080 654.053528,282.887787 
	C648.200317,265.600128 642.324585,248.319992 636.408569,231.053741 
	C634.526917,225.562119 632.515625,220.114899 630.082703,213.300095 
	C626.482300,225.862137 623.203491,236.951096 620.228027,248.120819 
	C619.848999,249.543564 620.551147,251.871826 621.601746,252.962402 
	C632.201416,263.965973 642.978210,274.798859 654.387268,285.681580 
M508.115417,123.615456 
	C499.033569,132.698212 489.951691,141.780975 480.869843,150.863724 
	C481.085754,151.208588 481.301636,151.553436 481.517548,151.898285 
	C497.215729,151.047028 512.913940,150.195786 529.339966,149.305054 
	C523.617493,138.565186 518.433044,128.835022 512.643677,117.969482 
	C510.871613,120.233078 509.741882,121.676178 508.115417,123.615456 
M276.318329,109.854576 
	C272.022644,112.505325 267.726990,115.156075 262.222839,118.552559 
	C272.544373,119.857864 281.353851,120.996666 290.172852,122.056274 
	C291.288330,122.190285 292.850128,122.356201 293.534424,121.750092 
	C300.041168,115.986679 309.043701,112.396713 310.105316,101.881378 
	C310.564178,97.336304 312.194641,92.909500 313.636017,87.029167 
	C300.410706,95.111885 288.671082,102.286636 276.318329,109.854576 
M199.981842,415.420715 
	C197.370010,415.925781 194.716507,416.283661 192.166061,417.005554 
	C191.086304,417.311218 189.541824,418.251190 189.373627,419.126648 
	C188.382019,424.288086 187.733627,429.515442 186.958755,434.794861 
	C205.157333,434.794861 222.890686,434.794861 241.933167,434.794861 
	C230.399460,428.397400 220.166168,422.513458 209.705246,417.066650 
	C207.125183,415.723267 203.804382,415.802429 199.981842,415.420715 
M144.992630,335.433624 
	C143.392258,341.718231 141.735352,347.989410 140.235626,354.297943 
	C139.906235,355.683563 139.503830,357.939484 140.207764,358.542603 
	C145.771652,363.309845 151.595505,367.773621 158.318359,373.107452 
	C157.082794,348.730225 155.927994,325.946594 154.773193,303.162964 
	C154.251144,303.115417 153.729095,303.067902 153.207047,303.020355 
	C150.515167,313.552917 147.823288,324.085480 144.992630,335.433624 
M390.543274,615.144043 
	C392.452271,608.961426 394.438538,602.800842 396.213257,596.579956 
	C396.630646,595.116882 396.940125,593.101074 396.267700,591.933899 
	C391.901276,584.354980 387.249939,576.940247 382.691895,569.471802 
	C382.377808,569.545837 382.063721,569.619934 381.749634,569.693970 
	C381.086487,595.169800 380.423370,620.645630 379.760223,646.121460 
	C380.125610,646.151917 380.490967,646.182373 380.856323,646.212769 
	C383.984650,636.102661 387.112976,625.992554 390.543274,615.144043 
M470.331573,469.114227 
	C468.579437,464.761993 466.827301,460.409760 464.806488,455.390137 
	C456.134644,468.280334 448.018311,480.344757 439.225769,493.414368 
	C452.705261,491.246002 464.984619,489.270660 477.638611,487.235077 
	C475.103333,480.868835 472.897888,475.330750 470.331573,469.114227 
M170.928024,215.526230 
	C169.762650,212.009598 168.597275,208.492981 167.431900,204.976349 
	C167.144608,205.009491 166.857300,205.042618 166.570007,205.075760 
	C164.134796,227.636261 161.699585,250.196777 159.099686,274.282928 
	C166.402451,264.004517 172.970474,254.890152 179.317230,245.624222 
	C179.944473,244.708511 179.482559,242.784225 179.076920,241.466324 
	C176.488403,233.056320 173.773972,224.685089 170.928024,215.526230 
M313.829102,497.524994 
	C297.298462,482.440247 280.767822,467.355499 264.237152,452.270752 
	C263.903229,452.637756 263.569305,453.004761 263.235382,453.371796 
	C270.907898,466.719910 278.522339,480.102264 286.333374,493.368835 
	C287.215302,494.866760 289.074799,496.445007 290.704559,496.736725 
	C299.105042,498.240295 307.578461,499.336273 316.808289,500.689117 
	C315.616058,499.396881 314.965820,498.692108 313.829102,497.524994 
M395.916931,689.622437 
	C397.316254,691.452026 398.715576,693.281677 400.337433,695.402222 
	C409.762817,686.948792 418.906158,678.748230 428.865021,669.816284 
	C416.904083,667.938599 406.174255,666.254211 395.189728,664.529846 
	C393.822113,673.176392 386.083862,681.161438 395.916931,689.622437 
M583.238770,463.473114 
	C579.418762,474.156006 575.598755,484.838898 571.457336,496.420654 
	C580.041016,493.369629 587.534424,490.757172 594.973022,487.997009 
	C595.891418,487.656189 596.998291,486.639069 597.203918,485.747589 
	C598.986267,478.021667 600.582214,470.252747 602.389099,461.766602 
	C595.808838,462.214600 589.869568,462.618958 583.238770,463.473114 
M434.580292,500.618469 
	C433.701599,500.476318 432.623108,499.931885 431.974884,500.253784 
	C425.002319,503.716400 418.083038,507.287994 411.194153,510.915131 
	C410.401398,511.332581 409.419586,512.201538 409.307373,512.974670 
	C408.253296,520.234436 407.369537,527.518982 406.360657,535.388733 
	C414.543579,532.667725 421.885712,530.452393 426.568054,523.375488 
	C428.655579,520.220398 431.512512,517.574158 434.021942,514.698486 
	C439.540466,508.374756 439.540924,508.375153 434.580292,500.618469 
M407.473846,651.975342 
	C404.512421,654.500366 401.550995,657.025391 398.589569,659.550415 
	C398.962677,659.939697 399.335785,660.328918 399.708923,660.718201 
	C410.146149,662.357544 420.583405,663.996887 430.441895,665.545349 
	C430.441895,653.830139 430.441895,642.570740 430.441895,630.094788 
	C422.191376,637.956970 415.089874,644.724243 407.473846,651.975342 
M364.918304,93.668190 
	C366.003510,98.457436 367.088684,103.246674 368.391907,108.998085 
	C378.990601,99.881409 388.860840,91.391319 399.645782,82.114456 
	C386.305145,80.668198 374.217865,79.357803 361.339417,77.961647 
	C362.613770,83.508972 363.686188,88.177338 364.918304,93.668190 
M483.335754,124.866501 
	C481.821320,131.666718 480.306854,138.466919 478.680145,145.771347 
	C489.277435,135.175888 499.253601,125.201431 509.460388,114.996445 
	C503.001617,110.831665 496.227905,106.463806 488.846924,101.704353 
	C486.997314,109.604652 485.303101,116.841080 483.335754,124.866501 
M524.532288,522.935608 
	C534.034912,520.638367 543.531738,518.316895 553.041931,516.051392 
	C561.001953,514.155151 562.490417,512.348511 562.899841,504.122223 
	C543.453247,503.928131 525.741333,509.220062 510.560150,521.831116 
	C511.610565,525.230042 514.110718,525.756409 517.450134,524.659485 
	C519.491638,523.988892 521.620422,523.583984 524.532288,522.935608 
M255.888123,505.107635 
	C254.647125,505.412415 253.406128,505.717194 251.515579,506.181488 
	C258.971863,514.130066 266.026306,521.650330 273.029358,529.115723 
	C280.872803,521.009949 287.832062,513.234192 283.524353,501.119507 
	C274.694092,502.407684 265.703186,503.719299 255.888123,505.107635 
M331.452026,82.037949 
	C321.415253,81.587303 316.538177,86.519714 315.891510,96.420731 
	C315.668030,99.841858 314.410461,103.195450 313.644318,106.497856 
	C331.830322,104.511749 340.643524,91.212173 351.931763,78.655663 
	C344.380219,79.927101 338.349548,80.942474 331.452026,82.037949 
M290.397095,501.179108 
	C289.728271,505.594147 289.059448,510.009186 288.413818,514.271118 
	C295.203064,516.378052 300.881439,518.233459 306.625061,519.858215 
	C308.096008,520.274353 310.010040,520.484131 311.314728,519.892944 
	C317.015167,517.310181 322.566193,514.397705 328.171478,511.604889 
	C328.325592,511.092865 328.479706,510.580841 328.633820,510.068787 
	C325.538361,508.598846 322.580017,506.433868 319.321381,505.790985 
	C310.038422,503.959473 300.633118,502.747986 290.397095,501.179108 
M209.453369,177.046661 
	C209.117569,175.347229 208.781769,173.647797 208.321304,171.317398 
	C196.428070,177.840988 185.089249,184.060471 172.616989,190.901657 
	C186.562027,192.948654 199.123154,194.792496 212.308701,196.728012 
	C211.354492,189.975891 210.499695,183.927139 209.453369,177.046661 
M353.405853,503.978546 
	C351.870056,504.811676 350.334229,505.644806 347.969025,506.927856 
	C358.685822,512.007935 368.567932,516.932007 378.686798,521.308960 
	C381.020264,522.318359 384.018799,521.180359 383.582703,517.381470 
	C383.034668,512.607422 382.520752,507.816864 381.617859,503.105133 
	C381.392609,501.929596 379.863556,500.332703 378.708954,500.113525 
	C370.142029,498.487183 361.607117,497.754974 353.405853,503.978546 
M603.905518,434.373260 
	C601.146423,438.127258 598.251526,441.790558 595.666687,445.660889 
	C593.122498,449.470306 589.214966,452.552948 588.264221,457.692749 
	C592.390259,457.692749 595.864136,457.544281 599.319397,457.735046 
	C602.690918,457.921173 604.251953,456.344025 605.518555,453.336945 
	C611.516113,439.098816 617.759644,424.964417 623.889893,410.781921 
	C624.352783,409.710968 624.614502,408.553009 624.969788,407.435486 
	C624.674133,407.287750 624.378540,407.140045 624.082886,406.992310 
	C617.489990,415.922791 610.897034,424.853271 603.905518,434.373260 
M162.542175,277.064758 
	C161.445648,279.511444 158.861588,282.487610 159.511215,284.312836 
	C162.259384,292.034180 165.969437,299.413177 169.327866,306.917328 
	C169.647964,306.873199 169.968048,306.829071 170.288147,306.784943 
	C173.066833,289.808960 175.845505,272.832977 178.624191,255.857010 
	C178.389908,255.724533 178.155624,255.592056 177.921341,255.459564 
	C172.936066,262.462585 167.950806,269.465607 162.542175,277.064758 
M609.142334,192.181107 
	C601.097412,186.779846 593.052490,181.378586 584.343445,175.531418 
	C584.343445,186.407196 584.343445,195.918701 584.343445,206.174576 
	C592.834900,201.446808 600.752136,197.038757 609.142334,192.181107 
M366.527618,680.035645 
	C359.099060,686.387085 351.670502,692.738525 343.174683,700.002441 
	C354.456787,699.256409 364.026093,698.623657 374.053680,697.960510 
	C374.053680,689.855042 374.053680,682.091919 374.053680,673.726685 
	C371.378510,675.969727 369.225128,677.775269 366.527618,680.035645 
M498.513397,507.006409 
	C501.362976,510.404114 504.212555,513.801819 507.070343,517.209290 
	C514.070129,513.201172 520.615295,509.453369 528.067627,505.186096 
	C514.247131,501.150146 501.485382,497.423401 488.723633,493.696625 
	C488.578857,493.983246 488.434113,494.269867 488.289337,494.556488 
	C491.541473,498.527771 494.793610,502.499054 498.513397,507.006409 
M563.304504,480.812103 
	C556.038818,487.541443 548.773132,494.270782 540.646729,501.797302 
	C546.302002,501.139954 550.623535,500.020325 554.862793,500.274292 
	C563.493896,500.791382 567.833679,497.074799 569.634766,488.731232 
	C570.903381,482.853821 573.522156,477.267883 575.538086,471.551788 
	C575.116638,471.274078 574.695190,470.996399 574.273743,470.718689 
	C570.788513,473.921783 567.303284,477.124878 563.304504,480.812103 
M350.536743,87.025810 
	C346.286316,91.599518 342.035858,96.173225 337.246429,101.326904 
	C346.476105,104.254036 354.819153,106.899979 364.012177,109.815498 
	C361.598846,99.296455 359.503174,90.161880 357.052795,79.481316 
	C354.450836,82.517258 352.739899,84.513573 350.536743,87.025810 
M213.183731,170.537903 
	C214.261017,178.340164 215.338287,186.142426 216.555496,194.958008 
	C225.611877,186.346634 233.794083,178.566483 242.747803,170.052704 
	C232.234299,170.052704 223.097626,170.052704 213.183731,170.537903 
M643.808228,362.144318 
	C642.784973,367.894623 641.761719,373.644928 640.546936,380.471466 
	C646.499329,376.755096 651.440613,373.775146 656.237915,370.579010 
	C657.112183,369.996552 658.087463,368.336700 657.851624,367.504089 
	C654.976562,357.353180 651.883606,347.264038 648.847229,337.158875 
	C648.596558,337.215637 648.345825,337.272400 648.095154,337.329163 
	C646.706482,345.315765 645.317810,353.302368 643.808228,362.144318 
M346.523773,521.982300 
	C349.492401,525.127869 352.364655,528.374634 355.493896,531.351318 
	C356.329498,532.146240 358.253632,532.772522 359.161011,532.354370 
	C364.203308,530.030701 369.086304,527.361328 374.649658,524.486816 
	C365.075226,519.951355 356.134247,515.961792 347.442780,511.487457 
	C343.519623,509.467865 340.405518,509.524231 337.253540,512.546265 
	C340.227112,515.567139 343.131195,518.517395 346.523773,521.982300 
M416.794373,614.389832 
	C411.515778,626.495361 406.237183,638.600891 400.958557,650.706421 
	C401.232117,650.896118 401.505676,651.085815 401.779236,651.275513 
	C410.826324,642.654480 419.873444,634.033508 429.271454,625.078186 
	C425.116486,621.198730 421.258636,617.596741 416.794373,614.389832 
M397.419220,645.825134 
	C397.581238,645.789307 397.850037,645.800903 397.890106,645.710815 
	C402.921692,634.399353 407.971191,623.095459 412.877045,611.729431 
	C413.218658,610.937988 412.803375,609.426025 412.201691,608.688110 
	C409.300598,605.130371 406.214905,601.723267 403.194672,598.262695 
	C402.665405,598.609375 402.136169,598.955994 401.606903,599.302673 
	C400.222168,614.609375 398.837463,629.916138 397.419220,645.825134 
M422.975067,699.282654 
	C424.854797,699.491455 426.734528,699.700256 428.750305,699.924194 
	C429.532471,691.143677 430.254913,683.033508 431.077881,673.795105 
	C422.027924,681.910583 413.966064,689.140015 405.085358,697.103760 
	C411.572235,697.887817 416.833405,698.523743 422.975067,699.282654 
M443.747955,686.860535 
	C445.883911,689.815674 447.457764,694.458130 450.266510,695.393921 
	C457.291626,697.734497 464.876862,698.393555 472.237366,699.727356 
	C472.343597,699.489929 472.449829,699.252563 472.556061,699.015198 
	C460.909027,689.915894 449.261993,680.816650 437.614960,671.717346 
	C437.302551,671.990295 436.990173,672.263184 436.677765,672.536133 
	C438.904846,677.098389 441.131897,681.660583 443.747955,686.860535 
M420.450653,549.076904 
	C415.798737,546.995789 411.146851,544.914673 406.195496,542.699646 
	C406.195496,551.089478 406.195496,558.902893 406.195496,567.488220 
	C414.520416,562.765381 422.228027,558.392761 430.440247,553.733826 
	C426.829681,552.047363 423.983551,550.717957 420.450653,549.076904 
M159.122055,302.704376 
	C160.028564,319.888763 160.935089,337.073151 161.841614,354.257538 
	C163.942184,345.983673 164.472794,337.527985 166.845184,329.625153 
	C170.659348,316.919617 164.872314,307.051422 159.085953,295.630737 
	C159.085953,298.525848 159.085953,300.164581 159.122055,302.704376 
M386.785461,642.123291 
	C384.520599,649.352966 382.255768,656.582642 379.698303,664.746399 
	C383.369049,663.427307 386.274841,662.734497 388.792267,661.340332 
	C390.193848,660.564148 391.718079,658.699890 391.874908,657.189758 
	C393.316681,643.307129 394.471100,629.394653 395.709198,615.490906 
	C395.528503,615.435791 395.347839,615.380676 395.167145,615.325562 
	C392.435394,623.998535 389.703613,632.671570 386.785461,642.123291 
M563.469543,153.002609 
	C564.681519,148.485718 565.893555,143.968826 567.450256,138.167267 
	C557.181152,142.806839 548.271851,146.832062 538.336487,151.320862 
	C546.641052,154.756531 553.729126,157.688919 561.287415,160.815826 
	C562.087952,157.862305 562.642273,155.817123 563.469543,153.002609 
M181.416840,276.572571 
	C181.416840,274.067719 181.416840,271.562866 181.416840,269.058044 
	C178.972260,281.471283 177.682114,294.188538 174.622467,306.464722 
	C172.199905,316.184753 176.630447,323.209900 180.146194,330.923767 
	C180.568863,330.884125 180.991547,330.844452 181.414215,330.804810 
	C181.414215,313.043518 181.414215,295.282257 181.416840,276.572571 
M170.038498,335.480164 
	C168.446487,345.346985 166.854462,355.213806 165.142685,365.822906 
	C180.042709,344.078064 182.166763,342.983124 171.946289,324.950195 
	C171.279510,328.511322 170.706924,331.569427 170.038498,335.480164 
M184.850601,419.441254 
	C185.149368,411.344727 178.011978,407.696960 174.897537,401.269592 
	C171.417847,413.441589 169.273590,424.702118 182.817490,431.601593 
	C183.454391,427.809875 184.086227,424.048340 184.850601,419.441254 
M386.832947,507.828033 
	C387.247803,510.917908 387.662659,514.007751 388.144379,517.595581 
	C392.757965,515.258057 396.773956,512.891785 401.044983,511.151398 
	C405.429047,509.364990 406.359924,506.393188 405.584320,502.094574 
	C398.932648,501.641388 392.557068,501.207001 385.779297,500.745209 
	C386.166473,503.351776 386.433136,505.147034 386.832947,507.828033 
M414.824860,604.808899 
	C418.399139,597.717224 421.973450,590.625610 425.547729,583.533936 
	C425.151398,583.269226 424.755066,583.004456 424.358734,582.739746 
	C417.601685,586.377502 410.844635,590.015198 403.961212,593.721008 
	C407.629517,597.524536 410.936432,600.953308 414.824860,604.808899 
M428.659729,538.843384 
	C430.865387,542.248535 433.071014,545.653687 435.524536,549.441528 
	C439.970306,543.117676 444.036591,537.333740 448.732300,530.654480 
	C440.407349,531.820984 433.244141,532.824768 425.678528,533.884888 
	C426.735657,535.695496 427.480591,536.971375 428.659729,538.843384 
M551.703552,133.885986 
	C548.105042,133.288239 544.520996,132.542007 540.898621,132.189011 
	C539.895142,132.091217 537.991455,132.999527 537.842285,133.722977 
	C536.971069,137.946121 536.498779,142.251541 535.727295,147.688797 
	C545.124817,143.382965 553.214722,139.676270 561.304626,135.969589 
	C561.185181,135.674225 561.065735,135.378876 560.946289,135.083511 
	C558.155090,134.706116 555.363953,134.328720 551.703552,133.885986 
M416.523132,581.959045 
	C419.242218,580.417969 421.961304,578.876892 425.503967,576.869019 
	C419.412109,575.147278 414.540009,573.566040 409.557190,572.504395 
	C408.299042,572.236328 405.647491,573.367798 405.413361,574.301636 
	C404.245758,578.958862 403.670563,583.764526 402.752502,589.333496 
	C407.731323,586.647095 411.790344,584.456909 416.523132,581.959045 
M429.735321,609.481628 
	C429.420319,602.324341 429.105316,595.167053 428.790314,588.009705 
	C425.259308,594.336487 422.441498,600.789307 419.750122,607.294495 
	C419.450470,608.018677 419.528839,609.371460 420.012268,609.870483 
	C423.017487,612.972717 426.188324,615.914429 429.753235,619.341003 
	C429.753235,615.706177 429.753235,613.070190 429.735321,609.481628 
M384.826538,489.387421 
	C387.272217,483.808136 389.717926,478.228882 392.163635,472.649597 
	C391.991699,472.561035 391.819763,472.472473 391.647797,472.383911 
	C384.493347,479.983734 377.338898,487.583588 370.515778,494.831451 
	C374.674683,493.444092 382.163025,500.201965 384.826538,489.387421 
M392.001678,520.672058 
	C388.025330,523.086670 387.705292,525.466309 391.201813,527.978027 
	C394.539154,530.375427 398.030029,532.558960 401.836182,535.091187 
	C402.757446,528.084900 403.605591,521.634827 404.568359,514.312988 
	C399.973663,516.606506 396.312256,518.434204 392.001678,520.672058 
M374.638824,551.818909 
	C375.682587,553.306213 376.726349,554.793579 377.770111,556.280945 
	C378.164795,555.988892 378.559479,555.696838 378.954163,555.404785 
	C380.036591,550.284363 381.119019,545.164001 382.290100,539.624146 
	C375.437744,539.190979 369.297974,538.802795 362.028839,538.343262 
	C366.673004,543.309875 370.414551,547.311157 374.638824,551.818909 
M398.897522,564.891663 
	C399.599823,564.679077 400.911713,564.477173 400.915680,564.252380 
	C401.026245,557.956360 401.004456,551.658081 401.004456,544.307312 
	C395.300446,550.604797 390.480072,555.926758 385.751953,561.146851 
	C389.455017,562.206116 393.752899,563.435486 398.897522,564.891663 
M469.082611,97.436249 
	C472.480408,97.136452 475.878235,96.836655 480.755341,96.406342 
	C476.674042,93.753662 473.838928,91.840050 470.926819,90.051811 
	C469.699249,89.298019 467.864258,87.932297 467.064178,88.338676 
	C461.032990,91.401947 455.190826,94.837296 449.289581,98.156418 
	C449.448364,98.462372 449.607147,98.768333 449.765930,99.074295 
	C455.903137,98.569183 462.040314,98.064072 469.082611,97.436249 
M576.987549,193.425415 
	C577.655579,194.754532 578.323608,196.083633 578.991699,197.412735 
	C579.944763,190.252014 580.071838,183.472931 579.835815,176.706497 
	C579.789551,175.379044 578.641418,173.568588 577.475708,172.905762 
	C574.706055,171.330978 571.621338,170.310257 568.663940,169.065659 
	C568.301514,169.383881 567.939148,169.702103 567.576782,170.020325 
	C570.649170,177.579163 573.721558,185.138016 576.987549,193.425415 
M196.703949,411.635864 
	C197.598480,411.354340 198.493011,411.072845 199.990280,410.601624 
	C191.726044,404.505066 183.920883,398.747162 176.115738,392.989288 
	C175.801529,393.328003 175.487335,393.666718 175.173126,394.005432 
	C178.078262,398.145325 181.302917,402.102356 183.804382,406.473267 
	C186.671570,411.483124 190.081390,414.195770 196.703949,411.635864 
M445.773346,521.839355 
	C444.414825,518.931885 443.056305,516.024353 441.478699,512.648010 
	C436.688873,518.204102 432.316437,523.276123 427.191559,529.220886 
	C434.701538,528.137695 440.864166,527.248901 447.430511,526.301819 
	C446.824280,524.668640 446.435669,523.621765 445.773346,521.839355 
M386.849121,567.761169 
	C390.544983,573.833130 394.240845,579.905090 398.619995,587.099609 
	C399.703979,580.432800 400.519867,575.414917 401.463501,569.611145 
	C396.131317,568.726562 391.318085,567.928040 386.849121,567.761169 
M172.790649,381.033783 
	C173.724762,373.972870 174.658875,366.911957 175.592987,359.851044 
	C175.331314,359.751099 175.069656,359.651154 174.807983,359.551208 
	C171.045761,365.652008 167.283539,371.752808 163.379669,378.083313 
	C165.982101,380.017181 168.030884,381.692322 170.267960,383.059448 
	C170.664734,383.301971 171.845108,382.262329 172.790649,381.033783 
M428.989349,572.540710 
	C430.074677,567.925110 431.159973,563.309509 432.488007,557.661682 
	C425.650879,561.548462 419.761597,564.896423 412.932190,568.778809 
	C418.790192,570.362610 423.538666,571.646423 428.989349,572.540710 
M292.605042,526.975098 
	C296.512726,526.214600 300.420441,525.454163 304.328125,524.693726 
	C299.331726,522.298340 294.309174,520.679565 289.251617,519.178711 
	C288.570007,518.976379 287.377838,519.079590 286.990631,519.530029 
	C284.512756,522.412292 282.193878,525.431213 278.992920,529.445862 
	C284.265350,528.464172 288.009064,527.767151 292.605042,526.975098 
M236.486832,157.889618 
	C238.778305,159.220993 241.069778,160.552383 244.209518,162.376617 
	C241.441422,154.348221 239.050400,147.413467 236.279709,139.377518 
	C234.977188,143.675964 234.236755,147.047104 232.931671,150.183289 
	C231.421692,153.811844 232.197311,156.129990 236.486832,157.889618 
M449.610107,496.150085 
	C446.039246,496.787781 442.468353,497.425476 438.324280,498.165527 
	C440.060272,500.863800 441.521179,503.134460 443.098969,505.586853 
	C449.686584,502.243896 455.769867,499.156860 461.853119,496.069824 
	C461.723175,495.618713 461.593231,495.167603 461.463287,494.716492 
	C457.802704,495.159973 454.142090,495.603424 449.610107,496.150085 
M439.815002,687.634644 
	C438.476257,684.677429 437.137512,681.720215 435.216858,677.477661 
	C434.505219,685.532104 433.922882,692.122864 433.282776,699.367432 
	C437.103516,697.975647 440.109009,696.880798 443.255402,695.734619 
	C442.031616,692.902344 441.048035,690.626038 439.815002,687.634644 
M422.280640,537.085510 
	C421.280792,536.520447 420.087402,535.285095 419.315125,535.508057 
	C416.213989,536.403503 413.243256,537.750671 409.404144,539.251404 
	C416.173462,542.316589 422.039703,544.972839 427.905975,547.629028 
	C428.096710,547.357117 428.287445,547.085205 428.478149,546.813293 
	C426.558258,543.767822 424.638336,540.722351 422.280640,537.085510 
M578.792053,168.482376 
	C579.255981,163.824173 579.719910,159.165970 580.183838,154.507767 
	C579.687500,154.387909 579.191162,154.268036 578.694824,154.148178 
	C575.060120,157.078690 571.425415,160.009201 567.118469,163.481750 
	C571.437622,165.390503 574.752502,166.855453 578.792053,168.482376 
M527.225586,136.234528 
	C528.610535,138.536804 529.995422,140.839096 531.667053,143.617981 
	C533.661255,129.751495 532.296204,127.208755 520.636963,123.344589 
	C522.903015,127.758705 524.908203,131.664795 527.225586,136.234528 
M307.730530,123.023308 
	C307.304596,124.261177 306.878662,125.499054 306.452759,126.736923 
	C306.815063,126.955818 307.177399,127.174721 307.539734,127.393623 
	C312.820343,121.547630 318.100983,115.701645 324.002930,109.167801 
	C314.699554,110.068329 309.444397,114.036362 307.730530,123.023308 
M397.438416,541.257996 
	C394.056793,540.761719 390.675201,540.265503 386.901428,539.711670 
	C385.833771,544.648010 384.872437,549.092712 383.911102,553.537415 
	C384.524170,553.958435 385.137207,554.379517 385.750244,554.800537 
	C389.581238,550.508179 393.412201,546.215759 397.438416,541.257996 
M390.997345,690.428101 
	C389.920471,689.124268 388.843597,687.820496 387.488861,686.180237 
	C384.747711,690.270264 382.416443,693.748657 379.742584,697.738281 
	C385.336761,697.357849 390.033020,697.038513 395.611847,696.659119 
	C393.905670,694.356018 392.670471,692.688660 390.997345,690.428101 
M383.388672,534.454895 
	C383.775421,532.728394 384.162201,531.001953 384.561951,529.217468 
	C376.891144,524.590210 372.990601,532.021423 367.484131,534.276733 
	C372.565460,534.510010 377.646790,534.743347 383.388672,534.454895 
M238.746094,165.657715 
	C233.958817,157.852005 225.170975,157.758255 219.646545,165.723053 
	C225.902008,165.723053 231.975388,165.723053 238.746094,165.657715 
M569.281982,147.845810 
	C568.630127,150.737259 567.978333,153.628723 567.026978,157.848816 
	C571.502319,154.269028 574.813354,151.620605 578.622742,148.573532 
	C576.432190,145.544464 574.438843,142.788101 571.900879,139.278610 
	C570.878296,142.714417 570.225647,144.907349 569.281982,147.845810 
M435.580292,96.940437 
	C436.467987,96.898888 437.802307,97.211548 438.165314,96.753868 
	C439.657227,94.872772 440.853699,92.757393 442.378754,90.386307 
	C437.007019,88.699966 432.240204,87.203514 427.473389,85.707069 
	C427.291138,86.018822 427.108856,86.330574 426.926605,86.642326 
	C429.653900,89.902092 432.381195,93.161865 435.580292,96.940437 
M389.092346,669.724487 
	C389.351654,668.564697 389.610992,667.404907 389.988953,665.714478 
	C386.500031,667.065186 383.695801,668.150879 380.522308,669.379456 
	C382.702362,672.247437 384.483917,674.591125 386.657532,677.450623 
	C387.615845,674.524658 388.276489,672.507568 389.092346,669.724487 
M382.498749,685.802246 
	C385.100433,681.679688 384.511108,679.997314 378.949707,676.042358 
	C378.949707,680.694458 378.949707,685.221497 378.949707,690.551147 
	C380.319794,688.729919 381.189789,687.573364 382.498749,685.802246 
M323.288757,521.099426 
	C327.519562,520.380066 331.750336,519.660706 336.675903,518.823242 
	C329.644470,510.656433 325.504883,520.566589 320.149597,521.002319 
	C320.938660,521.040588 321.727722,521.078857 323.288757,521.099426 
M301.314514,127.811302 
	C302.230347,125.326591 303.146179,122.841888 304.416321,119.395950 
	C295.037781,125.163330 294.683807,126.216003 299.301178,132.675262 
	C299.929352,131.192810 300.495972,129.855576 301.314514,127.811302 
M650.828857,382.962982 
	C657.217651,382.931885 657.217651,382.931885 657.328552,375.151123 
	C653.579529,377.522217 650.072449,379.740326 646.565308,381.958435 
	C646.659729,382.293274 646.754089,382.628113 646.848511,382.962952 
	C647.902100,382.962952 648.955750,382.962952 650.828857,382.962982 
M643.519775,387.142426 
	C644.326721,389.423584 645.133667,391.704773 646.054932,394.309052 
	C648.844116,391.600800 650.759155,389.741302 653.474548,387.104645 
	C649.758911,387.104645 647.025024,387.104645 643.519775,387.142426 
M418.382111,500.979187 
	C416.609192,501.223938 414.690460,501.132568 413.108917,501.818573 
	C411.816315,502.379272 410.926086,503.867645 409.857452,504.944794 
	C410.275909,505.366608 410.694366,505.788391 411.112823,506.210205 
	C413.757324,504.524780 416.401794,502.839325 418.382111,500.979187 
M543.526672,262.571625 
	C543.526672,262.571625 543.458923,262.462585 543.526672,262.571625 
M324.388031,108.558411 
	C324.388031,108.558411 324.307831,108.478241 324.388031,108.558411 
z"/>
<path fill="#BEE7FB" opacity="1.000000" stroke="none" 
	d="
M506.707123,261.696655 
	C472.896149,281.200470 439.409454,300.531891 405.259033,320.246429 
	C393.454987,252.155151 381.805176,184.953613 369.997162,116.839500 
	C378.063019,119.880630 385.447540,122.604454 392.787567,125.443398 
	C417.252930,134.906036 441.618805,144.636246 466.221436,153.726227 
	C471.813324,155.792282 474.749359,159.458801 477.463745,164.087784 
	C493.427277,191.311386 509.383850,218.539658 525.536377,245.650970 
	C527.434204,248.836319 526.830750,250.410034 523.976990,251.995834 
	C518.312622,255.143494 512.678162,258.344971 506.707123,261.696655 
z"/>
<path fill="#89D7F7" opacity="1.000000" stroke="none" 
	d="
M369.017456,137.994202 
	C379.445953,198.325577 389.849335,258.222595 400.458679,319.305573 
	C351.256470,289.522461 303.191772,260.427948 254.431198,230.912155 
	C256.354279,227.670670 258.131592,224.576035 260.001770,221.538589 
	C271.953705,202.126694 283.852570,182.681229 295.976471,163.377167 
	C297.660675,160.695526 300.167114,158.232666 302.837677,156.515839 
	C321.873016,144.278458 341.045959,132.254898 360.189667,120.186432 
	C361.659393,119.259895 363.240997,118.510788 365.345367,117.366745 
	C366.654419,124.614906 367.823364,131.087372 369.017456,137.994202 
z"/>
<path fill="#BEE7FB" opacity="1.000000" stroke="none" 
	d="
M293.958527,260.009216 
	C317.573914,274.305756 340.864838,288.439362 364.148804,302.584534 
	C375.634308,309.562073 387.106842,316.560883 399.340759,324.010132 
	C351.039185,360.230835 303.123474,396.162170 254.381409,432.713165 
	C254.381409,366.669647 254.381409,301.825592 254.381409,236.301941 
	C267.596252,244.230591 280.613708,252.040817 293.958527,260.009216 
z"/>
<path fill="#38C2D9" opacity="1.000000" stroke="none" 
	d="
M524.251160,278.306030 
	C526.037781,272.961548 527.693787,267.994293 529.349792,263.027008 
	C529.758972,263.029144 530.168091,263.031281 530.577271,263.033417 
	C546.599915,327.737427 562.622620,392.441406 578.893738,458.148712 
	C541.752380,454.963989 505.447144,451.850952 468.257324,448.662079 
	C487.006165,391.613708 505.563354,335.148499 524.251160,278.306030 
z"/>
<path fill="#8AD7F7" opacity="1.000000" stroke="none" 
	d="
M526.058167,257.048492 
	C521.391663,271.775909 516.839417,286.540680 512.037415,301.223785 
	C497.098022,346.903809 482.065002,392.553162 467.062897,438.212646 
	C466.502075,439.919495 465.884796,441.607788 464.859833,444.550903 
	C445.183777,404.162628 426.013947,364.813477 406.547089,324.854645 
	C409.972076,322.827606 413.180878,320.884186 416.430664,319.011963 
	C452.194122,298.408447 487.963196,277.814758 523.740601,257.235474 
	C524.155762,256.996674 524.699951,256.982361 525.585205,256.922882 
	C525.986511,256.982483 526.058167,257.048492 526.058167,257.048492 
z"/>
<path fill="#0AB4EA" opacity="1.000000" stroke="none" 
	d="
M346.392242,369.374481 
	C364.508301,355.806274 382.340881,342.458313 401.172455,328.362610 
	C400.037781,372.079681 398.930725,414.733368 397.806396,458.052765 
	C351.093903,450.801849 304.731293,443.605255 257.204010,436.227875 
	C287.520020,413.506348 316.814392,391.550537 346.392242,369.374481 
z"/>
<path fill="#59C9E6" opacity="1.000000" stroke="none" 
	d="
M559.820923,362.199829 
	C551.357422,328.131744 542.983337,294.466766 534.609253,260.801819 
	C534.961243,260.601471 535.313232,260.401154 535.665161,260.200806 
	C537.802246,262.750244 540.004517,265.248138 542.066528,267.856873 
	C571.999756,305.727325 601.912292,343.614197 631.838745,381.489990 
	C633.422729,383.494720 634.795410,385.090820 632.667053,387.949860 
	C616.962830,409.045288 601.451477,430.284241 585.861633,451.464935 
	C585.186646,452.381927 584.337280,453.170532 582.698547,454.980591 
	C574.956421,423.595795 567.433350,393.099365 559.820923,362.199829 
z"/>
<path fill="#0AB4EA" opacity="1.000000" stroke="none" 
	d="
M206.025803,309.018494 
	C220.225189,285.990356 234.255783,263.283386 249.003143,239.416397 
	C249.003143,303.372711 249.003143,365.887207 249.003143,429.157318 
	C247.858871,427.879852 246.969254,427.069397 246.295319,426.107788 
	C227.096634,398.714264 207.951859,371.282898 188.683319,343.938690 
	C186.982986,341.525757 186.868820,339.828857 188.477554,337.321991 
	C194.407120,328.082062 200.084671,318.680450 206.025803,309.018494 
z"/>
<path fill="#BFE7FB" opacity="1.000000" stroke="none" 
	d="
M610.807251,248.185913 
	C613.183594,251.951996 615.798401,255.242844 617.394043,258.970001 
	C625.370911,277.602051 633.086975,296.345795 640.865906,315.062225 
	C641.288452,316.078949 641.450317,317.204041 642.065247,319.537323 
	C605.847412,296.344635 570.586609,273.764832 534.593628,250.716141 
	C539.063538,247.085953 542.928711,243.835358 546.910767,240.734879 
	C556.991699,232.885742 567.107300,225.080872 577.248413,217.309662 
	C580.224915,215.028732 582.484924,214.608643 585.413940,218.338501 
	C592.275696,227.076248 599.864868,235.242157 607.141541,243.655197 
	C608.333435,245.033264 609.433289,246.490967 610.807251,248.185913 
z"/>
<path fill="#39C3D9" opacity="1.000000" stroke="none" 
	d="
M426.386017,454.324463 
	C418.262299,455.598267 410.566162,456.773102 402.321198,458.031738 
	C403.362885,416.769928 404.393677,375.938751 405.424469,335.107574 
	C405.732880,334.980377 406.041290,334.853149 406.349731,334.725952 
	C424.773865,372.535645 443.197968,410.345337 461.982208,448.894012 
	C449.926056,450.721680 438.369843,452.473602 426.386017,454.324463 
z"/>
<path fill="#8AD7F7" opacity="1.000000" stroke="none" 
	d="
M546.093262,263.892242 
	C559.304504,272.211945 572.551880,280.475037 585.718445,288.864868 
	C604.512634,300.840607 623.279602,312.860260 641.945801,325.033539 
	C643.398682,325.981079 645.025452,328.453339 644.786682,329.927979 
	C642.243347,345.635468 639.342896,361.285156 636.516235,376.946350 
	C636.432312,377.411163 636.081238,377.827789 635.560364,378.837769 
	C631.259583,373.535767 627.091919,368.509216 623.043274,363.388489 
	C597.992126,331.703918 572.964233,300.001068 547.950500,268.286987 
	C547.135193,267.253296 546.555237,266.034027 545.903442,264.476746 
	C545.941223,264.052216 546.093262,263.892242 546.093262,263.892242 
z"/>
<path fill="#0590D5" opacity="1.000000" stroke="none" 
	d="
M232.295380,485.703979 
	C218.102173,470.552094 204.153366,455.655731 189.425690,439.927612 
	C198.783203,439.927612 207.027740,439.927551 215.272278,439.927582 
	C225.764648,439.927612 236.258896,439.829895 246.747498,440.028625 
	C248.402649,440.060028 250.805542,440.976532 251.557175,442.252716 
	C261.769104,459.590851 271.754303,477.062592 281.770782,494.515503 
	C282.079163,495.052826 282.121277,495.742981 282.379425,496.703888 
	C271.185425,498.402100 260.231018,500.136475 249.242950,501.622162 
	C248.105118,501.776001 246.497971,500.714386 245.567978,499.766144 
	C241.138168,495.249329 236.867264,490.576660 232.295380,485.703979 
z"/>
<path fill="#0CB5EA" opacity="1.000000" stroke="none" 
	d="
M232.928436,256.952698 
	C217.252335,282.363556 201.748444,307.455170 185.725769,333.386353 
	C185.725769,322.100525 185.686569,312.027740 185.734558,301.955353 
	C185.815506,284.969147 186.013748,267.983185 186.008911,250.997177 
	C186.008011,247.846237 186.709869,246.422043 190.206696,245.794907 
	C208.657455,242.485825 227.043915,238.818283 246.383759,235.095886 
	C241.627228,242.808228 237.363937,249.720825 232.928436,256.952698 
z"/>
<path fill="#0791D6" opacity="1.000000" stroke="none" 
	d="
M365.812439,491.007874 
	C363.989410,491.677460 361.998169,492.932190 360.945221,492.384186 
	C329.689148,476.116272 298.525635,459.670471 267.356598,443.235565 
	C267.098846,443.099640 266.965424,442.728027 266.576141,442.196167 
	C309.298523,448.827362 351.777100,455.420685 393.319366,461.868683 
	C384.426392,471.299194 375.253998,481.025940 365.812439,491.007874 
z"/>
<path fill="#42C9F4" opacity="1.000000" stroke="none" 
	d="
M496.411438,187.578308 
	C490.343781,177.304474 484.477203,167.337219 478.087067,156.480469 
	C496.107910,155.530823 513.081848,154.636337 530.611877,153.712540 
	C530.059509,183.187973 529.518921,212.033356 528.948608,242.463913 
	C517.675110,223.435730 507.143799,205.660309 496.411438,187.578308 
z"/>
<path fill="#0CB5EA" opacity="1.000000" stroke="none" 
	d="
M288.245697,167.276154 
	C275.676270,187.645584 263.292786,207.704819 250.719894,228.070862 
	C239.873383,218.440155 229.335678,209.083633 218.354752,199.333572 
	C228.227005,189.979980 237.426834,180.347870 247.679626,172.010605 
	C251.650696,168.781433 257.938110,168.205627 263.288910,166.911530 
	C272.590851,164.661835 281.984955,162.793213 292.289246,160.559113 
	C290.635498,163.305771 289.533569,165.135864 288.245697,167.276154 
z"/>
<path fill="#0690D6" opacity="1.000000" stroke="none" 
	d="
M418.515564,496.414490 
	C407.854462,496.512909 397.625763,496.512909 386.470612,496.512909 
	C391.570038,485.082977 396.237366,474.517517 401.055237,464.021118 
	C401.438568,463.186005 402.806702,462.460083 403.813080,462.304688 
	C422.065948,459.485626 440.333282,456.760437 458.600006,454.031586 
	C458.897003,453.987244 459.224396,454.146393 460.079071,454.321564 
	C456.867157,459.155701 453.784363,463.830536 450.665558,468.481201 
	C446.121185,475.257690 441.363251,481.900360 437.063843,488.828186 
	C434.600616,492.797333 431.930237,495.500519 426.849487,495.253754 
	C424.239014,495.126953 421.583282,495.932037 418.515564,496.414490 
z"/>
<path fill="#079CDF" opacity="1.000000" stroke="none" 
	d="
M231.794342,413.179626 
	C235.674744,418.734436 239.347305,423.996521 243.019882,429.258606 
	C242.804260,429.516327 242.588654,429.774048 242.373047,430.031769 
	C230.286301,423.249969 217.909317,416.928192 206.203720,409.542358 
	C196.661453,403.521484 187.846207,396.325775 178.911819,389.389221 
	C177.624893,388.390076 176.734436,385.838318 176.924820,384.147461 
	C178.152359,373.245605 179.674210,362.375092 181.246078,351.515503 
	C181.542023,349.470795 182.497223,347.521515 183.558456,344.272125 
	C200.032227,367.807190 215.809372,390.347015 231.794342,413.179626 
z"/>
<path fill="#07ACCE" opacity="1.000000" stroke="none" 
	d="
M514.378418,477.253021 
	C503.602234,480.305328 493.215210,483.241302 482.159180,486.366394 
	C477.722839,475.394745 473.341827,464.559998 468.745728,453.193237 
	C501.715607,456.016113 533.994202,458.779846 566.272827,461.543549 
	C566.336365,461.917725 566.399841,462.291901 566.463318,462.666077 
	C549.231445,467.489624 531.999512,472.313171 514.378418,477.253021 
z"/>
<path fill="#43C9F4" opacity="1.000000" stroke="none" 
	d="
M428.485748,134.501236 
	C411.268738,127.825394 394.400238,121.317223 377.531769,114.809052 
	C377.534698,114.493729 377.537659,114.178413 377.540588,113.863091 
	C385.288177,112.612595 393.031158,111.332428 400.784515,110.118881 
	C411.116882,108.501694 421.473236,107.030708 431.784729,105.292030 
	C434.939972,104.760002 436.899231,105.384781 438.833435,108.187218 
	C448.078156,121.581741 457.588654,134.792831 466.482483,149.010239 
	C453.933075,144.229797 441.383698,139.449341 428.485748,134.501236 
z"/>
<path fill="#086DB3" opacity="1.000000" stroke="none" 
	d="
M345.590576,489.467407 
	C349.863251,491.747772 353.823303,493.826111 357.893616,495.962311 
	C347.867096,503.943939 338.456238,505.757111 326.463013,502.108521 
	C325.548645,501.830322 324.593353,501.374634 323.896454,500.739014 
	C306.330566,484.716583 288.796814,468.658905 271.653687,451.898285 
	C296.732758,463.331818 320.787415,476.735168 345.590576,489.467407 
z"/>
<path fill="#BFE7FB" opacity="1.000000" stroke="none" 
	d="
M535.926819,241.944641 
	C539.606445,231.835190 543.207153,221.696167 546.985046,211.623596 
	C551.988525,198.283371 557.130615,184.995148 562.721375,170.353531 
	C568.423462,184.205444 573.664795,196.938110 579.119324,210.188538 
	C568.317322,218.531677 557.638916,226.838089 546.887024,235.048264 
	C543.636597,237.530380 540.182617,239.745911 536.417725,242.049530 
	C536.013550,242.015518 535.926819,241.944641 535.926819,241.944641 
z"/>
<path fill="#088BB5" opacity="1.000000" stroke="none" 
	d="
M553.749512,470.875854 
	C559.882568,469.157959 565.619385,467.529846 572.423584,465.598816 
	C571.105042,467.191010 570.543030,468.045380 569.815552,468.721741 
	C558.711975,479.045319 547.642517,489.407410 536.391479,499.568237 
	C535.080750,500.751984 532.501648,501.660858 530.911255,501.227356 
	C517.450073,497.557922 504.082031,493.547028 490.484802,488.634216 
	C511.440948,482.744659 532.397095,476.855133 553.749512,470.875854 
z"/>
<path fill="#07ACCE" opacity="1.000000" stroke="none" 
	d="
M630.002319,443.979980 
	C623.392578,447.418518 617.124084,450.711243 609.681091,454.620911 
	C619.260620,432.523254 628.316650,411.633270 637.797729,389.762573 
	C642.774780,397.121735 647.298462,403.618011 651.533875,410.297119 
	C652.115234,411.213989 651.551453,413.160095 651.023865,414.423370 
	C649.039490,419.174713 646.515320,423.723114 644.816711,428.566132 
	C642.234924,435.927155 637.784729,441.222961 630.002319,443.979980 
z"/>
<path fill="#8AD7F7" opacity="1.000000" stroke="none" 
	d="
M611.743835,242.212280 
	C602.977478,232.039520 594.452087,222.123367 585.403015,211.598053 
	C591.741211,207.827469 597.607788,204.226059 603.579712,200.809006 
	C614.489319,194.566772 614.402344,194.738770 623.732788,203.076584 
	C626.668823,205.700241 627.208679,208.015793 626.041992,211.710892 
	C622.506287,222.909225 619.379761,234.236771 616.093872,245.513992 
	C615.488770,245.955399 614.883667,246.396805 614.278625,246.838226 
	C613.514038,245.381790 612.749451,243.925339 611.743835,242.212280 
z"/>
<path fill="#079CDF" opacity="1.000000" stroke="none" 
	d="
M478.231262,127.364159 
	C476.577393,134.491562 475.024536,141.213089 473.191284,149.148361 
	C462.259918,133.720505 452.057678,119.321648 441.361877,104.226242 
	C456.102142,102.980927 469.901672,101.815102 484.493439,100.582336 
	C482.311005,109.925331 480.321655,118.441803 478.231262,127.364159 
z"/>
<path fill="#0DB5EA" opacity="1.000000" stroke="none" 
	d="
M214.726303,236.696899 
	C205.835876,238.370010 197.360977,239.948624 187.676254,241.752579 
	C197.187363,228.344559 206.126617,215.742676 215.384338,202.691849 
	C225.744934,211.883606 235.843826,220.843201 246.693344,230.468735 
	C235.496964,232.645340 225.319397,234.623871 214.726303,236.696899 
z"/>
<path fill="#3BC3DA" opacity="1.000000" stroke="none" 
	d="
M310.656311,130.641678 
	C317.906433,122.570190 324.872803,114.717827 331.985229,107.000084 
	C332.809448,106.105705 334.647217,105.270576 335.671021,105.572968 
	C344.046356,108.046822 352.340057,110.797287 361.780426,113.823326 
	C340.500763,127.253868 320.179962,140.079239 299.941437,152.852661 
	C297.774231,142.598251 304.691437,137.047363 310.656311,130.641678 
z"/>
<path fill="#3AC3DA" opacity="1.000000" stroke="none" 
	d="
M253.210266,125.027802 
	C259.543335,120.610558 265.833313,123.925095 271.949432,124.260612 
	C277.067505,124.541374 282.142670,125.603310 288.478241,126.493820 
	C275.315033,139.052719 262.721100,151.068481 249.444977,163.735123 
	C245.764832,153.136124 242.326157,143.232544 238.767685,132.983932 
	C243.627457,130.296310 248.241623,127.744484 253.210266,125.027802 
z"/>
<path fill="#8BD8F7" opacity="1.000000" stroke="none" 
	d="
M547.139038,159.881226 
	C560.126343,165.310562 560.007385,165.264038 555.043762,177.954132 
	C548.573975,194.495209 542.319336,211.120453 535.958496,227.704208 
	C535.627380,228.567520 535.168945,229.381973 534.627136,230.518433 
	C534.627136,205.271286 534.627136,180.483521 534.627136,154.602631 
	C539.328796,156.602112 543.051636,158.185349 547.139038,159.881226 
z"/>
<path fill="#079CDF" opacity="1.000000" stroke="none" 
	d="
M176.019119,217.067963 
	C173.679031,209.615265 171.425720,202.549805 168.969391,194.847702 
	C183.101929,196.934738 196.675980,198.939285 211.117172,201.071899 
	C201.824631,214.161423 192.881943,226.758118 183.438568,240.060089 
	C180.838623,232.045059 178.472275,224.750137 176.019119,217.067963 
z"/>
<path fill="#8BD8F7" opacity="1.000000" stroke="none" 
	d="
M654.046265,285.680634 
	C642.978210,274.798859 632.201416,263.965973 621.601746,252.962402 
	C620.551147,251.871826 619.848999,249.543564 620.228027,248.120819 
	C623.203491,236.951096 626.482300,225.862137 630.082703,213.300095 
	C632.515625,220.114899 634.526917,225.562119 636.408569,231.053741 
	C642.324585,248.319992 648.200317,265.600128 654.053528,282.887787 
	C654.347839,283.757080 654.284241,284.747528 654.046265,285.680634 
z"/>
<path fill="#45CAF4" opacity="1.000000" stroke="none" 
	d="
M508.363770,123.367371 
	C509.741882,121.676178 510.871613,120.233078 512.643677,117.969482 
	C518.433044,128.835022 523.617493,138.565186 529.339966,149.305054 
	C512.913940,150.195786 497.215729,151.047028 481.517548,151.898285 
	C481.301636,151.553436 481.085754,151.208588 480.869843,150.863724 
	C489.951691,141.780975 499.033569,132.698212 508.363770,123.367371 
z"/>
<path fill="#3BC3DA" opacity="1.000000" stroke="none" 
	d="
M276.624878,109.657982 
	C288.671082,102.286636 300.410706,95.111885 313.636017,87.029167 
	C312.194641,92.909500 310.564178,97.336304 310.105316,101.881378 
	C309.043701,112.396713 300.041168,115.986679 293.534424,121.750092 
	C292.850128,122.356201 291.288330,122.190285 290.172852,122.056274 
	C281.353851,120.996666 272.544373,119.857864 262.222839,118.552559 
	C267.726990,115.156075 272.022644,112.505325 276.624878,109.657982 
z"/>
<path fill="#0690D6" opacity="1.000000" stroke="none" 
	d="
M200.402954,415.324188 
	C203.804382,415.802429 207.125183,415.723267 209.705246,417.066650 
	C220.166168,422.513458 230.399460,428.397400 241.933167,434.794861 
	C222.890686,434.794861 205.157333,434.794861 186.958755,434.794861 
	C187.733627,429.515442 188.382019,424.288086 189.373627,419.126648 
	C189.541824,418.251190 191.086304,417.311218 192.166061,417.005554 
	C194.716507,416.283661 197.370010,415.925781 200.402954,415.324188 
z"/>
<path fill="#0A9DDF" opacity="1.000000" stroke="none" 
	d="
M145.062012,335.025818 
	C147.823288,324.085480 150.515167,313.552917 153.207047,303.020355 
	C153.729095,303.067902 154.251144,303.115417 154.773193,303.162964 
	C155.927994,325.946594 157.082794,348.730225 158.318359,373.107452 
	C151.595505,367.773621 145.771652,363.309845 140.207764,358.542603 
	C139.503830,357.939484 139.906235,355.683563 140.235626,354.297943 
	C141.735352,347.989410 143.392258,341.718231 145.062012,335.025818 
z"/>
<path fill="#0B6FB4" opacity="1.000000" stroke="none" 
	d="
M390.392273,615.513245 
	C387.112976,625.992554 383.984650,636.102661 380.856323,646.212769 
	C380.490967,646.182373 380.125610,646.151917 379.760223,646.121460 
	C380.423370,620.645630 381.086487,595.169800 381.749634,569.693970 
	C382.063721,569.619934 382.377808,569.545837 382.691895,569.471802 
	C387.249939,576.940247 391.901276,584.354980 396.267700,591.933899 
	C396.940125,593.101074 396.630646,595.116882 396.213257,596.579956 
	C394.438538,602.800842 392.452271,608.961426 390.392273,615.513245 
z"/>
<path fill="#088BB5" opacity="1.000000" stroke="none" 
	d="
M470.511993,469.453430 
	C472.897888,475.330750 475.103333,480.868835 477.638611,487.235077 
	C464.984619,489.270660 452.705261,491.246002 439.225769,493.414368 
	C448.018311,480.344757 456.134644,468.280334 464.806488,455.390137 
	C466.827301,460.409760 468.579437,464.761993 470.511993,469.453430 
z"/>
<path fill="#0A9DDF" opacity="1.000000" stroke="none" 
	d="
M171.014496,215.913666 
	C173.773972,224.685089 176.488403,233.056320 179.076920,241.466324 
	C179.482559,242.784225 179.944473,244.708511 179.317230,245.624222 
	C172.970474,254.890152 166.402451,264.004517 159.099686,274.282928 
	C161.699585,250.196777 164.134796,227.636261 166.570007,205.075760 
	C166.857300,205.042618 167.144608,205.009491 167.431900,204.976349 
	C168.597275,208.492981 169.762650,212.009598 171.014496,215.913666 
z"/>
<path fill="#0A6EB3" opacity="1.000000" stroke="none" 
	d="
M314.072327,497.756165 
	C314.965820,498.692108 315.616058,499.396881 316.808289,500.689117 
	C307.578461,499.336273 299.105042,498.240295 290.704559,496.736725 
	C289.074799,496.445007 287.215302,494.866760 286.333374,493.368835 
	C278.522339,480.102264 270.907898,466.719910 263.235382,453.371796 
	C263.569305,453.004761 263.903229,452.637756 264.237152,452.270752 
	C280.767822,467.355499 297.298462,482.440247 314.072327,497.756165 
z"/>
<path fill="#086DB2" opacity="1.000000" stroke="none" 
	d="
M395.697845,689.336365 
	C386.083862,681.161438 393.822113,673.176392 395.189728,664.529846 
	C406.174255,666.254211 416.904083,667.938599 428.865021,669.816284 
	C418.906158,678.748230 409.762817,686.948792 400.337433,695.402222 
	C398.715576,693.281677 397.316254,691.452026 395.697845,689.336365 
z"/>
<path fill="#088BB5" opacity="1.000000" stroke="none" 
	d="
M583.584534,463.248230 
	C589.869568,462.618958 595.808838,462.214600 602.389099,461.766602 
	C600.582214,470.252747 598.986267,478.021667 597.203918,485.747589 
	C596.998291,486.639069 595.891418,487.656189 594.973022,487.997009 
	C587.534424,490.757172 580.041016,493.369629 571.457336,496.420654 
	C575.598755,484.838898 579.418762,474.156006 583.584534,463.248230 
z"/>
<path fill="#086DB2" opacity="1.000000" stroke="none" 
	d="
M434.791443,500.936554 
	C439.540924,508.375153 439.540466,508.374756 434.021942,514.698486 
	C431.512512,517.574158 428.655579,520.220398 426.568054,523.375488 
	C421.885712,530.452393 414.543579,532.667725 406.360657,535.388733 
	C407.369537,527.518982 408.253296,520.234436 409.307373,512.974670 
	C409.419586,512.201538 410.401398,511.332581 411.194153,510.915131 
	C418.083038,507.287994 425.002319,503.716400 431.974884,500.253784 
	C432.623108,499.931885 433.701599,500.476318 434.791443,500.936554 
z"/>
<path fill="#086DB3" opacity="1.000000" stroke="none" 
	d="
M407.731110,651.733398 
	C415.089874,644.724243 422.191376,637.956970 430.441895,630.094788 
	C430.441895,642.570740 430.441895,653.830139 430.441895,665.545349 
	C420.583405,663.996887 410.146149,662.357544 399.708923,660.718201 
	C399.335785,660.328918 398.962677,659.939697 398.589569,659.550415 
	C401.550995,657.025391 404.512421,654.500366 407.731110,651.733398 
z"/>
<path fill="#8BD8F7" opacity="1.000000" stroke="none" 
	d="
M624.997559,264.002441 
	C626.811646,265.581451 628.723999,267.061951 630.423096,268.756287 
	C638.305176,276.616272 645.981812,284.689178 654.042236,292.359863 
	C657.386841,295.542755 658.482117,298.136322 655.998596,302.508240 
	C653.075134,307.654816 651.058289,313.316406 647.306152,319.040344 
	C639.863831,300.945892 632.421509,282.851440 624.989563,264.378479 
	C625.000000,264.000000 624.997559,264.002441 624.997559,264.002441 
z"/>
<path fill="#44C9F4" opacity="1.000000" stroke="none" 
	d="
M364.838440,93.256943 
	C363.686188,88.177338 362.613770,83.508972 361.339417,77.961647 
	C374.217865,79.357803 386.305145,80.668198 399.645782,82.114456 
	C388.860840,91.391319 378.990601,99.881409 368.391907,108.998085 
	C367.088684,103.246674 366.003510,98.457436 364.838440,93.256943 
z"/>
<path fill="#3CC4DA" opacity="1.000000" stroke="none" 
	d="
M256.999084,162.976730 
	C268.550629,151.821243 280.102173,140.665741 291.825134,129.344711 
	C297.442780,137.408859 296.097839,145.566696 294.563171,153.688278 
	C294.398956,154.557251 293.227356,155.706116 292.343719,155.897690 
	C280.844299,158.390686 269.312469,160.734055 257.377075,163.036560 
	C256.965332,162.958008 256.999084,162.976730 256.999084,162.976730 
z"/>
<path fill="#44C9F4" opacity="1.000000" stroke="none" 
	d="
M483.472321,124.472000 
	C485.303101,116.841080 486.997314,109.604652 488.846924,101.704353 
	C496.227905,106.463806 503.001617,110.831665 509.460388,114.996445 
	C499.253601,125.201431 489.277435,135.175888 478.680145,145.771347 
	C480.306854,138.466919 481.821320,131.666718 483.472321,124.472000 
z"/>
<path fill="#0A6EB3" opacity="1.000000" stroke="none" 
	d="
M524.121155,522.997681 
	C521.620422,523.583984 519.491638,523.988892 517.450134,524.659485 
	C514.110718,525.756409 511.610565,525.230042 510.560150,521.831116 
	C525.741333,509.220062 543.453247,503.928131 562.899841,504.122223 
	C562.490417,512.348511 561.001953,514.155151 553.041931,516.051392 
	C543.531738,518.316895 534.034912,520.638367 524.121155,522.997681 
z"/>
<path fill="#45CAF4" opacity="1.000000" stroke="none" 
	d="
M376.038574,109.019577 
	C384.054047,101.875931 392.031189,94.688026 400.148743,87.662338 
	C400.897278,87.014503 402.787750,86.908882 403.729401,87.382935 
	C412.130035,91.611832 420.436493,96.027756 428.661835,101.563248 
	C411.388855,104.084885 394.115875,106.606522 376.421387,109.059921 
	C375.999908,108.991676 376.038574,109.019577 376.038574,109.019577 
z"/>
<path fill="#0791D6" opacity="1.000000" stroke="none" 
	d="
M256.300201,505.069275 
	C265.703186,503.719299 274.694092,502.407684 283.524353,501.119507 
	C287.832062,513.234192 280.872803,521.009949 273.029358,529.115723 
	C266.026306,521.650330 258.971863,514.130066 251.515579,506.181488 
	C253.406128,505.717194 254.647125,505.412415 256.300201,505.069275 
z"/>
<path fill="#3CC4DA" opacity="1.000000" stroke="none" 
	d="
M331.885437,81.997902 
	C338.349548,80.942474 344.380219,79.927101 351.931763,78.655663 
	C340.643524,91.212173 331.830322,104.511749 313.644318,106.497856 
	C314.410461,103.195450 315.668030,99.841858 315.891510,96.420731 
	C316.538177,86.519714 321.415253,81.587303 331.885437,81.997902 
z"/>
<path fill="#086DB2" opacity="1.000000" stroke="none" 
	d="
M290.836548,501.235840 
	C300.633118,502.747986 310.038422,503.959473 319.321381,505.790985 
	C322.580017,506.433868 325.538361,508.598846 328.633820,510.068787 
	C328.479706,510.580841 328.325592,511.092865 328.171478,511.604889 
	C322.566193,514.397705 317.015167,517.310181 311.314728,519.892944 
	C310.010040,520.484131 308.096008,520.274353 306.625061,519.858215 
	C300.881439,518.233459 295.203064,516.378052 288.413818,514.271118 
	C289.059448,510.009186 289.728271,505.594147 290.836548,501.235840 
z"/>
<path fill="#09ADCE" opacity="1.000000" stroke="none" 
	d="
M209.549133,177.462524 
	C210.499695,183.927139 211.354492,189.975891 212.308701,196.728012 
	C199.123154,194.792496 186.562027,192.948654 172.616989,190.901657 
	C185.089249,184.060471 196.428070,177.840988 208.321304,171.317398 
	C208.781769,173.647797 209.117569,175.347229 209.549133,177.462524 
z"/>
<path fill="#0A6EB3" opacity="1.000000" stroke="none" 
	d="
M353.750916,503.826965 
	C361.607117,497.754974 370.142029,498.487183 378.708954,500.113525 
	C379.863556,500.332703 381.392609,501.929596 381.617859,503.105133 
	C382.520752,507.816864 383.034668,512.607422 383.582703,517.381470 
	C384.018799,521.180359 381.020264,522.318359 378.686798,521.308960 
	C368.567932,516.932007 358.685822,512.007935 347.969025,506.927856 
	C350.334229,505.644806 351.870056,504.811676 353.750916,503.826965 
z"/>
<path fill="#0CAECF" opacity="1.000000" stroke="none" 
	d="
M604.104858,434.078491 
	C610.897034,424.853271 617.489990,415.922791 624.082886,406.992310 
	C624.378540,407.140045 624.674133,407.287750 624.969788,407.435486 
	C624.614502,408.553009 624.352783,409.710968 623.889893,410.781921 
	C617.759644,424.964417 611.516113,439.098816 605.518555,453.336945 
	C604.251953,456.344025 602.690918,457.921173 599.319397,457.735046 
	C595.864136,457.544281 592.390259,457.692749 588.264221,457.692749 
	C589.214966,452.552948 593.122498,449.470306 595.666687,445.660889 
	C598.251526,441.790558 601.146423,438.127258 604.104858,434.078491 
z"/>
<path fill="#0B9DDF" opacity="1.000000" stroke="none" 
	d="
M162.753860,276.766693 
	C167.950806,269.465607 172.936066,262.462585 177.921341,255.459564 
	C178.155624,255.592056 178.389908,255.724533 178.624191,255.857010 
	C175.845505,272.832977 173.066833,289.808960 170.288147,306.784943 
	C169.968048,306.829071 169.647964,306.873199 169.327866,306.917328 
	C165.969437,299.413177 162.259384,292.034180 159.511215,284.312836 
	C158.861588,282.487610 161.445648,279.511444 162.753860,276.766693 
z"/>
<path fill="#BFE7FB" opacity="1.000000" stroke="none" 
	d="
M608.905823,192.405914 
	C600.752136,197.038757 592.834900,201.446808 584.343445,206.174576 
	C584.343445,195.918701 584.343445,186.407196 584.343445,175.531418 
	C593.052490,181.378586 601.097412,186.779846 608.905823,192.405914 
z"/>
<path fill="#086DB3" opacity="1.000000" stroke="none" 
	d="
M366.799683,679.808228 
	C369.225128,677.775269 371.378510,675.969727 374.053680,673.726685 
	C374.053680,682.091919 374.053680,689.855042 374.053680,697.960510 
	C364.026093,698.623657 354.456787,699.256409 343.174683,700.002441 
	C351.670502,692.738525 359.099060,686.387085 366.799683,679.808228 
z"/>
<path fill="#0B6FB4" opacity="1.000000" stroke="none" 
	d="
M498.279572,506.738373 
	C494.793610,502.499054 491.541473,498.527771 488.289337,494.556488 
	C488.434113,494.269867 488.578857,493.983246 488.723633,493.696625 
	C501.485382,497.423401 514.247131,501.150146 528.067627,505.186096 
	C520.615295,509.453369 514.070129,513.201172 507.070343,517.209290 
	C504.212555,513.801819 501.362976,510.404114 498.279572,506.738373 
z"/>
<path fill="#0B6FB4" opacity="1.000000" stroke="none" 
	d="
M563.561279,480.570068 
	C567.303284,477.124878 570.788513,473.921783 574.273743,470.718689 
	C574.695190,470.996399 575.116638,471.274078 575.538086,471.551788 
	C573.522156,477.267883 570.903381,482.853821 569.634766,488.731232 
	C567.833679,497.074799 563.493896,500.791382 554.862793,500.274292 
	C550.623535,500.020325 546.302002,501.139954 540.646729,501.797302 
	C548.773132,494.270782 556.038818,487.541443 563.561279,480.570068 
z"/>
<path fill="#3CC4DA" opacity="1.000000" stroke="none" 
	d="
M350.782837,86.767853 
	C352.739899,84.513573 354.450836,82.517258 357.052795,79.481316 
	C359.503174,90.161880 361.598846,99.296455 364.012177,109.815498 
	C354.819153,106.899979 346.476105,104.254036 337.246429,101.326904 
	C342.035858,96.173225 346.286316,91.599518 350.782837,86.767853 
z"/>
<path fill="#07ACCE" opacity="1.000000" stroke="none" 
	d="
M213.572327,170.295303 
	C223.097626,170.052704 232.234299,170.052704 242.747803,170.052704 
	C233.794083,178.566483 225.611877,186.346634 216.555496,194.958008 
	C215.338287,186.142426 214.261017,178.340164 213.572327,170.295303 
z"/>
<path fill="#09ADCE" opacity="1.000000" stroke="none" 
	d="
M643.868652,361.716644 
	C645.317810,353.302368 646.706482,345.315765 648.095154,337.329163 
	C648.345825,337.272400 648.596558,337.215637 648.847229,337.158875 
	C651.883606,347.264038 654.976562,357.353180 657.851624,367.504089 
	C658.087463,368.336700 657.112183,369.996552 656.237915,370.579010 
	C651.440613,373.775146 646.499329,376.755096 640.546936,380.471466 
	C641.761719,373.644928 642.784973,367.894623 643.868652,361.716644 
z"/>
<path fill="#0A6EB3" opacity="1.000000" stroke="none" 
	d="
M346.279541,521.724976 
	C343.131195,518.517395 340.227112,515.567139 337.253540,512.546265 
	C340.405518,509.524231 343.519623,509.467865 347.442780,511.487457 
	C356.134247,515.961792 365.075226,519.951355 374.649658,524.486816 
	C369.086304,527.361328 364.203308,530.030701 359.161011,532.354370 
	C358.253632,532.772522 356.329498,532.146240 355.493896,531.351318 
	C352.364655,528.374634 349.492401,525.127869 346.279541,521.724976 
z"/>
<path fill="#0B6FB4" opacity="1.000000" stroke="none" 
	d="
M417.097595,614.192261 
	C421.258636,617.596741 425.116486,621.198730 429.271454,625.078186 
	C419.873444,634.033508 410.826324,642.654480 401.779236,651.275513 
	C401.505676,651.085815 401.232117,650.896118 400.958557,650.706421 
	C406.237183,638.600891 411.515778,626.495361 417.097595,614.192261 
z"/>
<path fill="#0B6FB4" opacity="1.000000" stroke="none" 
	d="
M397.435974,645.524048 
	C398.837463,629.916138 400.222168,614.609375 401.606903,599.302673 
	C402.136169,598.955994 402.665405,598.609375 403.194672,598.262695 
	C406.214905,601.723267 409.300598,605.130371 412.201691,608.688110 
	C412.803375,609.426025 413.218658,610.937988 412.877045,611.729431 
	C407.971191,623.095459 402.921692,634.399353 397.890106,645.710815 
	C397.850037,645.800903 397.581238,645.789307 397.435974,645.524048 
z"/>
<path fill="#0B6FB4" opacity="1.000000" stroke="none" 
	d="
M422.534821,699.221191 
	C416.833405,698.523743 411.572235,697.887817 405.085358,697.103760 
	C413.966064,689.140015 422.027924,681.910583 431.077881,673.795105 
	C430.254913,683.033508 429.532471,691.143677 428.750305,699.924194 
	C426.734528,699.700256 424.854797,699.491455 422.534821,699.221191 
z"/>
<path fill="#0B6FB4" opacity="1.000000" stroke="none" 
	d="
M443.553467,686.541687 
	C441.131897,681.660583 438.904846,677.098389 436.677765,672.536133 
	C436.990173,672.263184 437.302551,671.990295 437.614960,671.717346 
	C449.261993,680.816650 460.909027,689.915894 472.556061,699.015198 
	C472.449829,699.252563 472.343597,699.489929 472.237366,699.727356 
	C464.876862,698.393555 457.291626,697.734497 450.266510,695.393921 
	C447.457764,694.458130 445.883911,689.815674 443.553467,686.541687 
z"/>
<path fill="#086DB3" opacity="1.000000" stroke="none" 
	d="
M420.794037,549.232727 
	C423.983551,550.717957 426.829681,552.047363 430.440247,553.733826 
	C422.228027,558.392761 414.520416,562.765381 406.195496,567.488220 
	C406.195496,558.902893 406.195496,551.089478 406.195496,542.699646 
	C411.146851,544.914673 415.798737,546.995789 420.794037,549.232727 
z"/>
<path fill="#11A0E0" opacity="1.000000" stroke="none" 
	d="
M159.104004,302.253845 
	C159.085953,300.164581 159.085953,298.525848 159.085953,295.630737 
	C164.872314,307.051422 170.659348,316.919617 166.845184,329.625153 
	C164.472794,337.527985 163.942184,345.983673 161.841614,354.257538 
	C160.935089,337.073151 160.028564,319.888763 159.104004,302.253845 
z"/>
<path fill="#0E71B4" opacity="1.000000" stroke="none" 
	d="
M386.878662,641.733887 
	C389.703613,632.671570 392.435394,623.998535 395.167145,615.325562 
	C395.347839,615.380676 395.528503,615.435791 395.709198,615.490906 
	C394.471100,629.394653 393.316681,643.307129 391.874908,657.189758 
	C391.718079,658.699890 390.193848,660.564148 388.792267,661.340332 
	C386.274841,662.734497 383.369049,663.427307 379.698303,664.746399 
	C382.255768,656.582642 384.520599,649.352966 386.878662,641.733887 
z"/>
<path fill="#8DD8F7" opacity="1.000000" stroke="none" 
	d="
M563.333069,153.387268 
	C562.642273,155.817123 562.087952,157.862305 561.287415,160.815826 
	C553.729126,157.688919 546.641052,154.756531 538.336487,151.320862 
	C548.271851,146.832062 557.181152,142.806839 567.450256,138.167267 
	C565.893555,143.968826 564.681519,148.485718 563.333069,153.387268 
z"/>
<path fill="#0B6FB4" opacity="1.000000" stroke="none" 
	d="
M472.050781,497.044312 
	C465.698578,506.338440 459.346344,515.632507 452.421387,525.764648 
	C449.801666,520.029724 447.525238,515.046326 445.013000,509.546753 
	C453.736328,505.173767 462.271729,500.894989 471.275482,496.678589 
	C471.743866,496.740936 472.050751,497.044312 472.050781,497.044312 
z"/>
<path fill="#0B9DDF" opacity="1.000000" stroke="none" 
	d="
M181.415527,277.046753 
	C181.414215,295.282257 181.414215,313.043518 181.414215,330.804810 
	C180.991547,330.844452 180.568863,330.884125 180.146194,330.923767 
	C176.630447,323.209900 172.199905,316.184753 174.622467,306.464722 
	C177.682114,294.188538 178.972260,281.471283 181.416840,269.058044 
	C181.416840,271.562866 181.416840,274.067719 181.415527,277.046753 
z"/>
<path fill="#11A0E0" opacity="1.000000" stroke="none" 
	d="
M170.086426,335.053833 
	C170.706924,331.569427 171.279510,328.511322 171.946289,324.950195 
	C182.166763,342.983124 180.042709,344.078064 165.142685,365.822906 
	C166.854462,355.213806 168.446487,345.346985 170.086426,335.053833 
z"/>
<path fill="#0B9DDF" opacity="1.000000" stroke="none" 
	d="
M184.784332,419.864044 
	C184.086227,424.048340 183.454391,427.809875 182.817490,431.601593 
	C169.273590,424.702118 171.417847,413.441589 174.897537,401.269592 
	C178.011978,407.696960 185.149368,411.344727 184.784332,419.864044 
z"/>
<path fill="#0A6EB3" opacity="1.000000" stroke="none" 
	d="
M386.766357,507.385162 
	C386.433136,505.147034 386.166473,503.351776 385.779297,500.745209 
	C392.557068,501.207001 398.932648,501.641388 405.584320,502.094574 
	C406.359924,506.393188 405.429047,509.364990 401.044983,511.151398 
	C396.773956,512.891785 392.757965,515.258057 388.144379,517.595581 
	C387.662659,514.007751 387.247803,510.917908 386.766357,507.385162 
z"/>
<path fill="#0E71B4" opacity="1.000000" stroke="none" 
	d="
M414.534088,604.595459 
	C410.936432,600.953308 407.629517,597.524536 403.961212,593.721008 
	C410.844635,590.015198 417.601685,586.377502 424.358734,582.739746 
	C424.755066,583.004456 425.151398,583.269226 425.547729,583.533936 
	C421.973450,590.625610 418.399139,597.717224 414.534088,604.595459 
z"/>
<path fill="#0B6FB4" opacity="1.000000" stroke="none" 
	d="
M428.442627,538.545349 
	C427.480591,536.971375 426.735657,535.695496 425.678528,533.884888 
	C433.244141,532.824768 440.407349,531.820984 448.732300,530.654480 
	C444.036591,537.333740 439.970306,543.117676 435.524536,549.441528 
	C433.071014,545.653687 430.865387,542.248535 428.442627,538.545349 
z"/>
<path fill="#8DD8F7" opacity="1.000000" stroke="none" 
	d="
M552.138184,133.918640 
	C555.363953,134.328720 558.155090,134.706116 560.946289,135.083511 
	C561.065735,135.378876 561.185181,135.674225 561.304626,135.969589 
	C553.214722,139.676270 545.124817,143.382965 535.727295,147.688797 
	C536.498779,142.251541 536.971069,137.946121 537.842285,133.722977 
	C537.991455,132.999527 539.895142,132.091217 540.898621,132.189011 
	C544.520996,132.542007 548.105042,133.288239 552.138184,133.918640 
z"/>
<path fill="#0E71B4" opacity="1.000000" stroke="none" 
	d="
M416.186218,582.112915 
	C411.790344,584.456909 407.731323,586.647095 402.752502,589.333496 
	C403.670563,583.764526 404.245758,578.958862 405.413361,574.301636 
	C405.647491,573.367798 408.299042,572.236328 409.557190,572.504395 
	C414.540009,573.566040 419.412109,575.147278 425.503967,576.869019 
	C421.961304,578.876892 419.242218,580.417969 416.186218,582.112915 
z"/>
<path fill="#0E71B4" opacity="1.000000" stroke="none" 
	d="
M429.744263,609.957947 
	C429.753235,613.070190 429.753235,615.706177 429.753235,619.341003 
	C426.188324,615.914429 423.017487,612.972717 420.012268,609.870483 
	C419.528839,609.371460 419.450470,608.018677 419.750122,607.294495 
	C422.441498,600.789307 425.259308,594.336487 428.790314,588.009705 
	C429.105316,595.167053 429.420319,602.324341 429.744263,609.957947 
z"/>
<path fill="#0B6FB4" opacity="1.000000" stroke="none" 
	d="
M384.645386,489.725525 
	C382.163025,500.201965 374.674683,493.444092 370.515778,494.831451 
	C377.338898,487.583588 384.493347,479.983734 391.647797,472.383911 
	C391.819763,472.472473 391.991699,472.561035 392.163635,472.649597 
	C389.717926,478.228882 387.272217,483.808136 384.645386,489.725525 
z"/>
<path fill="#0E71B4" opacity="1.000000" stroke="none" 
	d="
M392.326263,520.466980 
	C396.312256,518.434204 399.973663,516.606506 404.568359,514.312988 
	C403.605591,521.634827 402.757446,528.084900 401.836182,535.091187 
	C398.030029,532.558960 394.539154,530.375427 391.201813,527.978027 
	C387.705292,525.466309 388.025330,523.086670 392.326263,520.466980 
z"/>
<path fill="#0E71B4" opacity="1.000000" stroke="none" 
	d="
M374.397461,551.565674 
	C370.414551,547.311157 366.673004,543.309875 362.028839,538.343262 
	C369.297974,538.802795 375.437744,539.190979 382.290100,539.624146 
	C381.119019,545.164001 380.036591,550.284363 378.954163,555.404785 
	C378.559479,555.696838 378.164795,555.988892 377.770111,556.280945 
	C376.726349,554.793579 375.682587,553.306213 374.397461,551.565674 
z"/>
<path fill="#086DB2" opacity="1.000000" stroke="none" 
	d="
M398.474182,564.778320 
	C393.752899,563.435486 389.455017,562.206116 385.751953,561.146851 
	C390.480072,555.926758 395.300446,550.604797 401.004456,544.307312 
	C401.004456,551.658081 401.026245,557.956360 400.915680,564.252380 
	C400.911713,564.477173 399.599823,564.679077 398.474182,564.778320 
z"/>
<path fill="#11A0E0" opacity="1.000000" stroke="none" 
	d="
M468.630066,97.497604 
	C462.040314,98.064072 455.903137,98.569183 449.765930,99.074295 
	C449.607147,98.768333 449.448364,98.462372 449.289581,98.156418 
	C455.190826,94.837296 461.032990,91.401947 467.064178,88.338676 
	C467.864258,87.932297 469.699249,89.298019 470.926819,90.051811 
	C473.838928,91.840050 476.674042,93.753662 480.755341,96.406342 
	C475.878235,96.836655 472.480408,97.136452 468.630066,97.497604 
z"/>
<path fill="#BFE7FB" opacity="1.000000" stroke="none" 
	d="
M576.890747,193.061127 
	C573.721558,185.138016 570.649170,177.579163 567.576782,170.020325 
	C567.939148,169.702103 568.301514,169.383881 568.663940,169.065659 
	C571.621338,170.310257 574.706055,171.330978 577.475708,172.905762 
	C578.641418,173.568588 579.789551,175.379044 579.835815,176.706497 
	C580.071838,183.472931 579.944763,190.252014 578.991699,197.412735 
	C578.323608,196.083633 577.655579,194.754532 576.890747,193.061127 
z"/>
<path fill="#11A0E0" opacity="1.000000" stroke="none" 
	d="
M196.337738,411.715942 
	C190.081390,414.195770 186.671570,411.483124 183.804382,406.473267 
	C181.302917,402.102356 178.078262,398.145325 175.173126,394.005432 
	C175.487335,393.666718 175.801529,393.328003 176.115738,392.989288 
	C183.920883,398.747162 191.726044,404.505066 199.990280,410.601624 
	C198.493011,411.072845 197.598480,411.354340 196.337738,411.715942 
z"/>
<path fill="#0E71B4" opacity="1.000000" stroke="none" 
	d="
M445.910217,522.207092 
	C446.435669,523.621765 446.824280,524.668640 447.430511,526.301819 
	C440.864166,527.248901 434.701538,528.137695 427.191559,529.220886 
	C432.316437,523.276123 436.688873,518.204102 441.478699,512.648010 
	C443.056305,516.024353 444.414825,518.931885 445.910217,522.207092 
z"/>
<path fill="#0E71B4" opacity="1.000000" stroke="none" 
	d="
M386.677002,567.445312 
	C391.318085,567.928040 396.131317,568.726562 401.463501,569.611145 
	C400.519867,575.414917 399.703979,580.432800 398.619995,587.099609 
	C394.240845,579.905090 390.544983,573.833130 386.677002,567.445312 
z"/>
<path fill="#1195D7" opacity="1.000000" stroke="none" 
	d="
M172.727142,381.424255 
	C171.845108,382.262329 170.664734,383.301971 170.267960,383.059448 
	C168.030884,381.692322 165.982101,380.017181 163.379669,378.083313 
	C167.283539,371.752808 171.045761,365.652008 174.807983,359.551208 
	C175.069656,359.651154 175.331314,359.751099 175.592987,359.851044 
	C174.658875,366.911957 173.724762,373.972870 172.727142,381.424255 
z"/>
<path fill="#0E71B4" opacity="1.000000" stroke="none" 
	d="
M428.638245,572.735474 
	C423.538666,571.646423 418.790192,570.362610 412.932190,568.778809 
	C419.761597,564.896423 425.650879,561.548462 432.488007,557.661682 
	C431.159973,563.309509 430.074677,567.925110 428.638245,572.735474 
z"/>
<path fill="#1172B5" opacity="1.000000" stroke="none" 
	d="
M292.178894,527.022583 
	C288.009064,527.767151 284.265350,528.464172 278.992920,529.445862 
	C282.193878,525.431213 284.512756,522.412292 286.990631,519.530029 
	C287.377838,519.079590 288.570007,518.976379 289.251617,519.178711 
	C294.309174,520.679565 299.331726,522.298340 304.328125,524.693726 
	C300.420441,525.454163 296.512726,526.214600 292.178894,527.022583 
z"/>
<path fill="#088BB5" opacity="1.000000" stroke="none" 
	d="
M236.181946,157.680634 
	C232.197311,156.129990 231.421692,153.811844 232.931671,150.183289 
	C234.236755,147.047104 234.977188,143.675964 236.279709,139.377518 
	C239.050400,147.413467 241.441422,154.348221 244.209518,162.376617 
	C241.069778,160.552383 238.778305,159.220993 236.181946,157.680634 
z"/>
<path fill="#0E71B4" opacity="1.000000" stroke="none" 
	d="
M450.045807,496.098480 
	C454.142090,495.603424 457.802704,495.159973 461.463287,494.716492 
	C461.593231,495.167603 461.723175,495.618713 461.853119,496.069824 
	C455.769867,499.156860 449.686584,502.243896 443.098969,505.586853 
	C441.521179,503.134460 440.060272,500.863800 438.324280,498.165527 
	C442.468353,497.425476 446.039246,496.787781 450.045807,496.098480 
z"/>
<path fill="#1172B5" opacity="1.000000" stroke="none" 
	d="
M439.939728,687.992188 
	C441.048035,690.626038 442.031616,692.902344 443.255402,695.734619 
	C440.109009,696.880798 437.103516,697.975647 433.282776,699.367432 
	C433.922882,692.122864 434.505219,685.532104 435.216858,677.477661 
	C437.137512,681.720215 438.476257,684.677429 439.939728,687.992188 
z"/>
<path fill="#1172B5" opacity="1.000000" stroke="none" 
	d="
M422.499512,537.381226 
	C424.638336,540.722351 426.558258,543.767822 428.478149,546.813293 
	C428.287445,547.085205 428.096710,547.357117 427.905975,547.629028 
	C422.039703,544.972839 416.173462,542.316589 409.404144,539.251404 
	C413.243256,537.750671 416.213989,536.403503 419.315125,535.508057 
	C420.087402,535.285095 421.280792,536.520447 422.499512,537.381226 
z"/>
<path fill="#8DD8F7" opacity="1.000000" stroke="none" 
	d="
M578.429749,168.401398 
	C574.752502,166.855453 571.437622,165.390503 567.118469,163.481750 
	C571.425415,160.009201 575.060120,157.078690 578.694824,154.148178 
	C579.191162,154.268036 579.687500,154.387909 580.183838,154.507767 
	C579.719910,159.165970 579.255981,163.824173 578.429749,168.401398 
z"/>
<path fill="#8DD8F7" opacity="1.000000" stroke="none" 
	d="
M527.069519,135.902695 
	C524.908203,131.664795 522.903015,127.758705 520.636963,123.344589 
	C532.296204,127.208755 533.661255,129.751495 531.667053,143.617981 
	C529.995422,140.839096 528.610535,138.536804 527.069519,135.902695 
z"/>
<path fill="#3CC4DA" opacity="1.000000" stroke="none" 
	d="
M307.853333,122.668205 
	C309.444397,114.036362 314.699554,110.068329 324.002930,109.167801 
	C318.100983,115.701645 312.820343,121.547630 307.539734,127.393623 
	C307.177399,127.174721 306.815063,126.955818 306.452759,126.736923 
	C306.878662,125.499054 307.304596,124.261177 307.853333,122.668205 
z"/>
<path fill="#1172B5" opacity="1.000000" stroke="none" 
	d="
M397.340820,541.590698 
	C393.412201,546.215759 389.581238,550.508179 385.750244,554.800537 
	C385.137207,554.379517 384.524170,553.958435 383.911102,553.537415 
	C384.872437,549.092712 385.833771,544.648010 386.901428,539.711670 
	C390.675201,540.265503 394.056793,540.761719 397.340820,541.590698 
z"/>
<path fill="#1172B5" opacity="1.000000" stroke="none" 
	d="
M391.216309,690.724670 
	C392.670471,692.688660 393.905670,694.356018 395.611847,696.659119 
	C390.033020,697.038513 385.336761,697.357849 379.742584,697.738281 
	C382.416443,693.748657 384.747711,690.270264 387.488861,686.180237 
	C388.843597,687.820496 389.920471,689.124268 391.216309,690.724670 
z"/>
<path fill="#0E71B4" opacity="1.000000" stroke="none" 
	d="
M383.058411,534.715759 
	C377.646790,534.743347 372.565460,534.510010 367.484131,534.276733 
	C372.990601,532.021423 376.891144,524.590210 384.561951,529.217468 
	C384.162201,531.001953 383.775421,532.728394 383.058411,534.715759 
z"/>
<path fill="#29B8D5" opacity="1.000000" stroke="none" 
	d="
M238.397430,165.690384 
	C231.975388,165.723053 225.902008,165.723053 219.646545,165.723053 
	C225.170975,157.758255 233.958817,157.852005 238.397430,165.690384 
z"/>
<path fill="#8DD8F7" opacity="1.000000" stroke="none" 
	d="
M569.427490,147.473038 
	C570.225647,144.907349 570.878296,142.714417 571.900879,139.278610 
	C574.438843,142.788101 576.432190,145.544464 578.622742,148.573532 
	C574.813354,151.620605 571.502319,154.269028 567.026978,157.848816 
	C567.978333,153.628723 568.630127,150.737259 569.427490,147.473038 
z"/>
<path fill="#18B9EB" opacity="1.000000" stroke="none" 
	d="
M435.344391,96.681030 
	C432.381195,93.161865 429.653900,89.902092 426.926605,86.642326 
	C427.108856,86.330574 427.291138,86.018822 427.473389,85.707069 
	C432.240204,87.203514 437.007019,88.699966 442.378754,90.386307 
	C440.853699,92.757393 439.657227,94.872772 438.165314,96.753868 
	C437.802307,97.211548 436.467987,96.898888 435.344391,96.681030 
z"/>
<path fill="#0CAECF" opacity="1.000000" stroke="none" 
	d="
M633.056335,448.079865 
	C632.844727,448.521515 632.597961,448.949982 632.426575,449.406708 
	C629.406494,457.453735 623.301208,458.670898 614.870972,456.671082 
	C621.151794,453.531433 626.766479,450.724762 632.733276,448.012329 
	C633.085266,448.106567 633.056335,448.079865 633.056335,448.079865 
z"/>
<path fill="#18B9EB" opacity="1.000000" stroke="none" 
	d="
M425.995392,93.003479 
	C419.512695,90.065315 413.030029,87.127144 406.547363,84.188980 
	C415.173737,82.277145 421.663513,84.875427 425.929077,92.666351 
	C426.000000,93.000031 425.995392,93.003471 425.995392,93.003479 
z"/>
<path fill="#1172B5" opacity="1.000000" stroke="none" 
	d="
M389.014740,670.107544 
	C388.276489,672.507568 387.615845,674.524658 386.657532,677.450623 
	C384.483917,674.591125 382.702362,672.247437 380.522308,669.379456 
	C383.695801,668.150879 386.500031,667.065186 389.988953,665.714478 
	C389.610992,667.404907 389.351654,668.564697 389.014740,670.107544 
z"/>
<path fill="#1172B5" opacity="1.000000" stroke="none" 
	d="
M382.279266,686.109558 
	C381.189789,687.573364 380.319794,688.729919 378.949707,690.551147 
	C378.949707,685.221497 378.949707,680.694458 378.949707,676.042358 
	C384.511108,679.997314 385.100433,681.679688 382.279266,686.109558 
z"/>
<path fill="#1172B5" opacity="1.000000" stroke="none" 
	d="
M322.902771,521.108276 
	C321.727722,521.078857 320.938660,521.040588 320.149597,521.002319 
	C325.504883,520.566589 329.644470,510.656433 336.675903,518.823242 
	C331.750336,519.660706 327.519562,520.380066 322.902771,521.108276 
z"/>
<path fill="#59C9E6" opacity="1.000000" stroke="none" 
	d="
M301.188538,128.164825 
	C300.495972,129.855576 299.929352,131.192810 299.301178,132.675262 
	C294.683807,126.216003 295.037781,125.163330 304.416321,119.395950 
	C303.146179,122.841888 302.230347,125.326591 301.188538,128.164825 
z"/>
<path fill="#6ACFE9" opacity="1.000000" stroke="none" 
	d="
M650.419067,382.962952 
	C648.955750,382.962952 647.902100,382.962952 646.848511,382.962952 
	C646.754089,382.628113 646.659729,382.293274 646.565308,381.958435 
	C650.072449,379.740326 653.579529,377.522217 657.328552,375.151123 
	C657.217651,382.931885 657.217651,382.931885 650.419067,382.962952 
z"/>
<path fill="#6ACFE9" opacity="1.000000" stroke="none" 
	d="
M643.905518,387.123535 
	C647.025024,387.104645 649.758911,387.104645 653.474548,387.104645 
	C650.759155,389.741302 648.844116,391.600800 646.054932,394.309052 
	C645.133667,391.704773 644.326721,389.423584 643.905518,387.123535 
z"/>
<path fill="#1172B5" opacity="1.000000" stroke="none" 
	d="
M418.714172,501.066528 
	C416.401794,502.839325 413.757324,504.524780 411.112823,506.210205 
	C410.694366,505.788391 410.275909,505.366608 409.857452,504.944794 
	C410.926086,503.867645 411.816315,502.379272 413.108917,501.818573 
	C414.690460,501.132568 416.609192,501.223938 418.714172,501.066528 
z"/>
<path fill="#8BD8F7" opacity="1.000000" stroke="none" 
	d="
M625.001221,263.999207 
	C624.759705,263.666199 624.514282,263.335754 624.289673,262.991730 
	C624.284424,262.983612 624.511780,262.823608 624.630615,262.734467 
	C624.759827,263.000427 624.889038,263.266388 625.007874,263.767395 
	C624.997559,264.002441 625.000000,264.000000 625.001221,263.999207 
z"/>
<path fill="#BFE7FB" opacity="1.000000" stroke="none" 
	d="
M536.055054,242.053070 
	C535.932251,242.519165 535.767944,242.947678 535.603638,243.376205 
	C535.575989,242.992188 535.548340,242.608185 535.723755,242.084412 
	C535.926819,241.944641 536.013550,242.015518 536.055054,242.053070 
z"/>
<path fill="#8AD7F7" opacity="1.000000" stroke="none" 
	d="
M545.862366,264.129364 
	C545.610352,264.024048 545.437134,263.841583 545.263977,263.659119 
	C545.471680,263.625183 545.679382,263.591217 545.990173,263.724731 
	C546.093262,263.892242 545.941223,264.052216 545.862366,264.129364 
z"/>
<path fill="#8AD7F7" opacity="1.000000" stroke="none" 
	d="
M543.492798,262.517090 
	C543.458923,262.462585 543.526672,262.571625 543.492798,262.517090 
z"/>
<path fill="#18B9EB" opacity="1.000000" stroke="none" 
	d="
M426.000244,92.999741 
	C426.159821,93.226128 426.319153,93.452797 426.478485,93.679466 
	C426.245911,93.612915 426.013306,93.546371 425.888062,93.241653 
	C425.995392,93.003471 426.000000,93.000031 426.000244,92.999741 
z"/>
<path fill="#0CAECF" opacity="1.000000" stroke="none" 
	d="
M633.095459,448.126953 
	C633.105713,448.147308 633.098389,447.847015 633.098389,447.847015 
	C633.098389,447.847015 633.065613,447.900726 633.060974,447.990295 
	C633.056335,448.079865 633.085266,448.106567 633.095459,448.126953 
z"/>
<path fill="#45CAF4" opacity="1.000000" stroke="none" 
	d="
M375.984924,108.973114 
	C375.910980,109.009956 375.852020,109.065369 375.915833,109.070175 
	C376.038574,109.019577 375.999908,108.991676 375.984924,108.973114 
z"/>
<path fill="#8AD7F7" opacity="1.000000" stroke="none" 
	d="
M525.953247,256.946838 
	C526.069397,256.908356 526.218689,256.905518 526.213135,256.975586 
	C526.058167,257.048492 525.986511,256.982483 525.953247,256.946838 
z"/>
<path fill="#3CC4DA" opacity="1.000000" stroke="none" 
	d="
M256.953796,162.940643 
	C256.942291,162.923279 256.870026,163.315872 256.870026,163.315872 
	C256.870026,163.315872 256.873810,163.144775 256.936462,163.060760 
	C256.999084,162.976730 256.965332,162.958008 256.953796,162.940643 
z"/>
<path fill="#3CC4DA" opacity="1.000000" stroke="none" 
	d="
M324.347931,108.518326 
	C324.307831,108.478241 324.388031,108.558411 324.347931,108.518326 
z"/>
<path fill="#0B6FB4" opacity="1.000000" stroke="none" 
	d="
M471.613098,496.569305 
	C471.825134,496.554840 472.167938,496.712006 472.280762,496.956726 
	C472.050751,497.044312 471.743866,496.740936 471.613098,496.569305 
z"/>
</svg>